<svg width="19" height="20" viewBox="0 0 19 20" fill="none" xmlns="http://www.w3.org/2000/svg">
<path d="M10.6146 8.88339L10.6225 2.08902C10.6225 1.79114 10.5042 1.50545 10.2936 1.29482C10.0829 1.08418 9.79726 0.965851 9.49938 0.965852C9.2015 0.965852 8.91582 1.08418 8.70518 1.29482C8.49455 1.50545 8.37621 1.79114 8.37621 2.08902L8.38412 8.88339L1.58975 8.87548C1.29187 8.87548 1.00618 8.99382 0.795549 9.20445C0.584915 9.41509 0.466581 9.70077 0.466581 9.99865C0.466581 10.2965 0.584915 10.5822 0.795549 10.7928C1.00618 11.0035 1.29187 11.1218 1.58975 11.1218L8.38412 11.1139L8.37621 17.9083C8.37561 18.0559 8.40424 18.2023 8.46047 18.3388C8.5167 18.4754 8.59941 18.5994 8.70383 18.7038C8.80825 18.8082 8.9323 18.891 9.06885 18.9472C9.20539 19.0034 9.35171 19.0321 9.49938 19.0314C9.64704 19.0321 9.79337 19.0034 9.92991 18.9472C10.0665 18.891 10.1905 18.8082 10.2949 18.7038C10.3993 18.5994 10.4821 18.4754 10.5383 18.3388C10.5945 18.2023 10.6232 18.0559 10.6225 17.9083L10.6146 11.1139L17.409 11.1218C17.5567 11.1224 17.703 11.0938 17.8395 11.0376C17.9761 10.9813 18.1001 10.8986 18.2046 10.7942C18.309 10.6898 18.3917 10.5657 18.4479 10.4292C18.5041 10.2926 18.5328 10.1463 18.5322 9.99865C18.5328 9.85098 18.5041 9.70466 18.4479 9.56812C18.3917 9.43157 18.309 9.30752 18.2046 9.2031C18.1001 9.09868 17.9761 9.01597 17.8395 8.95974C17.703 8.90351 17.5567 8.87488 17.409 8.87548L10.6146 8.88339Z" fill="#AE0E0E"/>
</svg>
