<svg width="24" height="24" viewBox="0 0 24 24" fill="none" xmlns="http://www.w3.org/2000/svg">
<path fill-rule="evenodd" clip-rule="evenodd" d="M16.6945 0C16.9185 1.45774 16.2993 2.88584 15.4826 3.89623C14.6087 4.98001 13.1026 5.81824 11.6433 5.7745C11.3769 4.37885 12.059 2.94087 12.8889 1.97422C13.7993 0.907381 15.3596 0.0889035 16.6945 0ZM21.0783 20.5185C21.8306 19.4135 22.1116 18.8561 22.6957 17.6086C18.448 16.0606 17.7674 10.2734 21.9711 8.05222C20.6889 6.51122 18.8871 5.61796 17.1863 5.61796C15.9607 5.61796 15.1211 5.92444 14.3577 6.20307C13.7216 6.43526 13.1384 6.64811 12.4292 6.64811C11.6628 6.64811 10.9841 6.4149 10.2734 6.1707C9.49248 5.90237 8.67297 5.62078 7.65606 5.62078C5.74739 5.62078 3.71576 6.73842 2.4277 8.64914C0.617092 11.3402 0.925934 16.3993 3.86213 20.709C4.91161 22.2514 6.31384 23.9843 8.14787 23.9998C8.90887 24.0071 9.41527 23.7894 9.96327 23.5538C10.5905 23.2842 11.2722 22.9912 12.4526 22.9852C13.64 22.9784 14.311 23.275 14.9299 23.5485C15.4638 23.7845 15.959 24.0034 16.7135 23.9956C18.549 23.9815 20.0288 22.0609 21.0783 20.5185Z" fill="white"/>
</svg>
