<svg width="16" height="12" viewBox="0 0 16 12" fill="none" xmlns="http://www.w3.org/2000/svg">
<mask id="mask0_7444_3539" style="mask-type:luminance" maskUnits="userSpaceOnUse" x="0" y="0" width="16" height="12">
<path d="M0 0H15.1843V12H0V0Z" fill="white"/>
</mask>
<g mask="url(#mask0_7444_3539)">
<path d="M12.3116 0C11.9034 0 11.5557 0.266261 11.4238 0.631177H11.1796L10.7985 0.250273C10.7394 0.18859 10.658 0.155342 10.5717 0.155342C10.4434 0.155342 10.3288 0.233012 10.2794 0.351381C10.2313 0.47093 10.2596 0.606559 10.3522 0.696584L11.2338 1.57803L10.8849 1.92687L10.8244 1.86528C10.6259 1.66924 10.2892 1.69886 10.0562 1.93305L8.24718 3.74037C8.0129 3.97466 7.98328 4.31123 8.1806 4.50972L8.24101 4.57013L7.89208 4.91897L7.70703 4.73401L7.95739 4.48383L7.51099 4.03752L7.3532 4.19531L6.53679 3.37918L6.85247 3.06359L6.40616 2.61728L5.99791 3.02535L5.74764 2.77507C5.66869 2.6925 5.55033 2.65925 5.44059 2.68877C5.32958 2.71711 5.24328 2.80342 5.21493 2.91443C5.18532 3.02416 5.21857 3.14244 5.30124 3.22138L5.55151 3.47166L5.14335 3.87972L5.58975 4.32594L5.90543 4.01036L6.72184 4.82649L6.62927 4.91897L6.44431 4.73401C6.19895 4.48874 5.79697 4.48874 5.55151 4.73401L2.84112 7.44377C2.59448 7.68914 2.59448 8.09103 2.84112 8.33639L3.65743 9.15253C3.7808 9.2758 3.94231 9.33739 4.10383 9.33739C4.26535 9.33739 4.42696 9.2758 4.55024 9.15253L7.26072 6.44277C7.50727 6.1974 7.50727 5.79551 7.26072 5.55015L7.07567 5.36528L7.26072 5.18032L10.9564 8.87509L11.4028 8.42887C11.277 8.30305 11.277 8.10829 11.4028 7.98256L14.2982 5.08785C14.424 4.96212 14.6188 4.96212 14.7445 5.08785L15.191 4.64162L14.9518 4.40243C15.0529 4.36419 15.1281 4.27671 15.1503 4.17069C15.1725 4.06459 15.138 3.95494 15.0602 3.87972L14.7445 3.56414C14.6854 3.50245 14.604 3.4692 14.5177 3.46793C14.387 3.4692 14.2686 3.55051 14.2229 3.67378L12.43 1.88254C12.7863 1.83567 13.0811 1.59157 13.1995 1.26245H13.89V0.631177H13.1995C13.0675 0.266261 12.7197 0 12.3116 0ZM12.3116 0.631177C12.4892 0.631177 12.6273 0.769259 12.6273 0.946857C12.6273 1.12436 12.4892 1.26245 12.3116 1.26245C12.134 1.26245 11.9959 1.12436 11.9959 0.946857C11.9959 0.769259 12.134 0.631177 12.3116 0.631177ZM11.6802 2.02435L12.8122 3.15607L12.4633 3.50491L12.4029 3.44331C12.2043 3.24727 11.8676 3.27689 11.6346 3.51108L9.82558 5.31841C9.5913 5.55269 9.56168 5.88917 9.75899 6.08766L9.8194 6.14807L9.47048 6.497L8.33848 5.36528L8.68741 5.01635L8.74909 5.07803C8.83666 5.16434 8.95131 5.20749 9.07213 5.20749C9.22511 5.20749 9.38781 5.1409 9.51735 5.01017L11.3251 3.20167C11.5594 2.96866 11.589 2.63081 11.3929 2.43359L11.3313 2.37318L11.6802 2.02435ZM13.2586 3.60229L13.9171 4.26063L10.5753 7.60156L9.91688 6.94331L10.2658 6.59439L10.3275 6.65607C10.4151 6.74237 10.5297 6.78552 10.6506 6.78552C10.8035 6.78552 10.9663 6.71893 11.0957 6.58821L12.9035 4.77971C13.1378 4.54669 13.1674 4.20885 12.9713 4.01163L12.9097 3.95122L13.2586 3.60229ZM2.71039 8.65198L1.26272 10.0993L1.89408 10.7306L3.34175 9.28316L2.71039 8.65198ZM1.19731 10.4803L0.631359 11.0461L0 11.9929L0.947038 11.3617L1.51299 10.7959L1.19731 10.4803Z" fill="white"/>
</g>
</svg>
