<svg width="21" height="23" viewBox="0 0 21 23" fill="none" xmlns="http://www.w3.org/2000/svg">
<g clip-path="url(#clip0_6877_3287)">
<path d="M12.4285 9.42391V9.06391C12.4285 8.65017 12.2641 8.25338 11.9716 7.96082C11.679 7.66826 11.2822 7.50391 10.8685 7.50391V7.50391C10.4548 7.50391 10.058 7.66826 9.76541 7.96082C9.47286 8.25338 9.3085 8.65017 9.3085 9.06391V12.0639L8.3685 13.5039H12.4285" stroke="white" stroke-linecap="round" stroke-linejoin="round"/>
<path d="M7.8685 10.625H10.7485" stroke="white" stroke-linecap="round" stroke-linejoin="round"/>
<path d="M10.3685 17.5039C13.9584 17.5039 16.8685 14.5938 16.8685 11.0039C16.8685 7.41406 13.9584 4.50391 10.3685 4.50391C6.77865 4.50391 3.8685 7.41406 3.8685 11.0039C3.8685 14.5938 6.77865 17.5039 10.3685 17.5039Z" stroke="white" stroke-linecap="round" stroke-linejoin="round"/>
</g>
<path d="M16.8975 15.6364L19.337 15.0058L19.9676 17.4453" stroke="white" stroke-linecap="round" stroke-linejoin="round"/>
<path d="M19.0277 15.4999C17.7882 18.3214 13.7686 21.4798 9.89262 21.5106C8.0329 21.5212 6.21662 21.0636 4.69272 20.2003C3.16883 19.3371 2.01198 18.111 1.38073 16.6893" stroke="white" stroke-linecap="round" stroke-linejoin="round"/>
<path d="M3.49508 6.09088L1.03223 6.623L0.500107 4.16016" stroke="white" stroke-linecap="round" stroke-linejoin="round"/>
<path d="M1.36112 6.14172C2.71292 3.37229 6.85606 0.377817 10.7301 0.502563C12.5888 0.566667 14.3852 1.09677 15.8732 2.02052C17.3612 2.94426 18.468 4.21582 19.0416 5.66168" stroke="white" stroke-linecap="round" stroke-linejoin="round"/>
<defs>
<clipPath id="clip0_6877_3287">
<rect width="14" height="14" fill="white" transform="translate(3.3685 4.00391)"/>
</clipPath>
</defs>
</svg>
