<svg width="21" height="21" viewBox="0 0 21 21" fill="none" xmlns="http://www.w3.org/2000/svg">
<g clip-path="url(#clip0_5054_2483)">
<path d="M19.0063 14.2695H16.42C16.3049 14.2695 16.1917 14.2393 16.092 14.1818C15.9922 14.1243 15.9093 14.0415 15.8517 13.9418C15.794 13.8421 15.7636 13.729 15.7635 13.6139C15.7634 13.4987 15.7936 13.3856 15.8511 13.2858C16.2788 12.544 16.43 11.6748 16.2781 10.8321C16.1261 9.98948 15.6808 9.22784 15.0209 8.68219C14.173 7.98 13.0974 7.70634 11.993 7.91569C10.542 8.18869 9.39225 9.35616 9.13172 10.8203C8.97573 11.6667 9.12699 12.541 9.55828 13.2858C9.61591 13.3856 9.64623 13.4988 9.6462 13.6141C9.64617 13.7293 9.6158 13.8425 9.55812 13.9423C9.50045 14.0421 9.41751 14.1249 9.31766 14.1825C9.21781 14.24 9.10456 14.2703 8.98931 14.2702H1.99369C1.63897 14.2698 1.29889 14.1287 1.04813 13.8778C0.797367 13.6269 0.656424 13.2868 0.65625 12.9321V1.99369C0.656597 1.63908 0.797617 1.2991 1.04836 1.04836C1.2991 0.797617 1.63908 0.656597 1.99369 0.65625H19.0063C19.3609 0.656597 19.7009 0.797617 19.9516 1.04836C20.2024 1.2991 20.3434 1.63908 20.3438 1.99369V12.9327C20.3432 13.2872 20.2021 13.627 19.9514 13.8776C19.7007 14.1282 19.3608 14.2692 19.0063 14.2695ZM17.4202 12.957H19.0063L19.0312 1.99369L19.0063 1.96875H1.99369L1.96875 12.9327L7.98525 12.9537C7.7456 12.1897 7.6956 11.3789 7.83956 10.5912C8.19459 8.59228 9.76631 6.99891 11.7502 6.62616C13.2241 6.34791 14.7217 6.72984 15.8583 7.67222C16.615 8.29765 17.1679 9.13467 17.4461 10.0761C17.7243 11.0176 17.7153 12.0207 17.4202 12.957Z" fill="white"/>
<path d="M12.7049 16.4229C9.97821 16.4229 7.76074 14.2048 7.76074 11.4787C7.76074 8.75263 9.97887 6.53516 12.7043 6.53516C15.4303 6.53516 17.6485 8.75263 17.6485 11.4787C17.6485 14.2048 15.4303 16.4229 12.7043 16.4229H12.7049ZM12.7049 7.84766C11.7422 7.8487 10.8192 8.23157 10.1383 8.91227C9.45749 9.59298 9.07446 10.5159 9.07324 11.4787C9.07428 12.4414 9.45715 13.3645 10.1379 14.0453C10.8186 14.7261 11.7415 15.1092 12.7043 15.1104C13.6671 15.1093 14.5903 14.7264 15.2711 14.0455C15.952 13.3647 16.3349 12.4416 16.336 11.4787C16.3347 10.5159 15.9517 9.59298 15.2709 8.91227C14.5901 8.23157 13.667 7.8487 12.7043 7.84766H12.7049Z" fill="white"/>
<path d="M12.7043 13.4473C13.7917 13.4473 14.6731 12.5658 14.6731 11.4785C14.6731 10.3912 13.7917 9.50977 12.7043 9.50977C11.617 9.50977 10.7356 10.3912 10.7356 11.4785C10.7356 12.5658 11.617 13.4473 12.7043 13.4473Z" fill="white"/>
<path d="M16.8813 20.3439C16.7951 20.3439 16.7098 20.3269 16.6301 20.2939C16.5505 20.2609 16.4782 20.2125 16.4173 20.1516L12.4844 16.2187C12.395 16.1291 12.3333 16.0157 12.3069 15.8919C12.2805 15.7681 12.2905 15.6394 12.3355 15.5212C12.3806 15.4029 12.4589 15.3002 12.561 15.2255C12.6631 15.1507 12.7846 15.107 12.911 15.0998C13.5134 15.0667 14.0981 14.8834 14.6116 14.5666C15.1251 14.2498 15.5512 13.8095 15.851 13.2859C15.9012 13.1986 15.9709 13.124 16.0546 13.068C16.1384 13.0119 16.2339 12.9759 16.3337 12.9627C16.4336 12.9495 16.5352 12.9595 16.6306 12.9918C16.726 13.0242 16.8127 13.0781 16.8839 13.1494L20.1514 16.4175C20.2431 16.5093 20.3056 16.6262 20.3309 16.7535C20.3562 16.8808 20.3432 17.0127 20.2936 17.1326C20.2439 17.2525 20.1598 17.355 20.0519 17.4271C19.944 17.4992 19.8172 17.5377 19.6874 17.5377H17.5375V19.6876C17.5375 19.8617 17.4684 20.0286 17.3453 20.1516C17.2222 20.2747 17.0553 20.3439 16.8813 20.3439ZM14.2825 16.1609L16.225 18.1034V16.8815C16.225 16.7074 16.2942 16.5405 16.4172 16.4174C16.5403 16.2944 16.7072 16.2252 16.8813 16.2252H18.1032L16.5092 14.6305C15.9246 15.3388 15.1532 15.8689 14.2825 16.1609Z" fill="white"/>
<path d="M8.52789 20.3445C8.35385 20.3445 8.18693 20.2753 8.06386 20.1523C7.94078 20.0292 7.87164 19.8623 7.87164 19.6882V17.5384H5.72111C5.59148 17.538 5.46484 17.4993 5.35715 17.4272C5.24946 17.355 5.16553 17.2526 5.11592 17.1328C5.06632 17.0131 5.05326 16.8813 5.07839 16.7541C5.10352 16.6269 5.16571 16.51 5.25714 16.4181L8.52527 13.15C8.59649 13.0788 8.68316 13.0248 8.77856 12.9925C8.87397 12.9601 8.97555 12.9501 9.07543 12.9633C9.17531 12.9765 9.27081 13.0125 9.35453 13.0686C9.43825 13.1246 9.50794 13.1992 9.55821 13.2865C9.85798 13.8099 10.2839 14.25 10.7971 14.5668C11.3104 14.8836 11.8947 15.067 12.4969 15.1004C12.6236 15.107 12.7456 15.1503 12.8481 15.2249C12.9507 15.2995 13.0294 15.4023 13.0746 15.5208C13.1199 15.6393 13.1297 15.7684 13.103 15.8924C13.0763 16.0164 13.0141 16.1299 12.9241 16.2193L8.99186 20.1522C8.93096 20.2132 8.85863 20.2615 8.77902 20.2945C8.69941 20.3275 8.61407 20.3445 8.52789 20.3445ZM7.30596 16.2259H8.52789C8.70194 16.2259 8.86886 16.295 8.99193 16.4181C9.115 16.5411 9.18414 16.7081 9.18414 16.8821V18.104L11.1266 16.1615C10.2559 15.8698 9.48426 15.3398 8.89933 14.6318L7.30596 16.2259ZM10.4999 4.41992H3.76221C3.58816 4.41992 3.42124 4.35078 3.29817 4.22771C3.1751 4.10464 3.10596 3.93772 3.10596 3.76367C3.10596 3.58962 3.1751 3.4227 3.29817 3.29963C3.42124 3.17656 3.58816 3.10742 3.76221 3.10742H10.4999C10.674 3.10742 10.8409 3.17656 10.964 3.29963C11.087 3.4227 11.1562 3.58962 11.1562 3.76367C11.1562 3.93772 11.087 4.10464 10.964 4.22771C10.8409 4.35078 10.674 4.41992 10.4999 4.41992ZM7.85852 6.85986H3.76221C3.58816 6.85986 3.42124 6.79072 3.29817 6.66765C3.1751 6.54458 3.10596 6.37766 3.10596 6.20361C3.10596 6.02956 3.1751 5.86264 3.29817 5.73957C3.42124 5.6165 3.58816 5.54736 3.76221 5.54736H7.85852C8.03257 5.54736 8.19949 5.6165 8.32256 5.73957C8.44563 5.86264 8.51477 6.02956 8.51477 6.20361C8.51477 6.37766 8.44563 6.54458 8.32256 6.66765C8.19949 6.79072 8.03257 6.85986 7.85852 6.85986Z" fill="white"/>
</g>
<defs>
<clipPath id="clip0_5054_2483">
<rect width="21" height="21" fill="white"/>
</clipPath>
</defs>
</svg>
