<svg width="21" height="21" viewBox="0 0 21 21" fill="none" xmlns="http://www.w3.org/2000/svg">
<g clip-path="url(#clip0_4978_3346)">
<path d="M10.4998 21C7.69528 21 5.05858 19.9076 3.07528 17.9247C1.09197 15.9418 0 13.3047 0 10.4998C0 7.69488 1.09238 5.05858 3.07528 3.07528C5.05817 1.09197 7.69528 0 10.4998 0C13.3043 0 15.941 1.09238 17.9243 3.07528C19.9076 5.05817 20.9996 7.69528 20.9996 10.4998C20.9996 13.3043 19.9072 15.941 17.9243 17.9243C15.9414 19.9076 13.3043 20.9996 10.4998 20.9996V21ZM10.4998 1.25654C8.0309 1.25654 5.70955 2.21799 3.96377 3.96377C2.21799 5.70955 1.25654 8.0309 1.25654 10.4998C1.25654 12.9687 2.21799 15.29 3.96377 17.0358C5.70955 18.7816 8.0309 19.7431 10.4998 19.7431C12.9687 19.7431 15.29 18.7816 17.0358 17.0358C18.7816 15.29 19.7431 12.9687 19.7431 10.4998C19.7431 8.0309 18.7816 5.70955 17.0358 3.96377C15.29 2.21799 12.9687 1.25654 10.4998 1.25654Z" fill="white"/>
<circle cx="5.47808" cy="10.4856" r="1.11608" fill="white"/>
<ellipse cx="10.5005" cy="10.4856" rx="1.11608" ry="1.11608" fill="white"/>
<ellipse cx="15.5228" cy="10.4856" rx="1.11608" ry="1.11608" fill="white"/>
</g>
<defs>
<clipPath id="clip0_4978_3346">
<rect width="21" height="21" fill="white"/>
</clipPath>
</defs>
</svg>
