<svg width="18" height="16" viewBox="0 0 18 16" fill="none" xmlns="http://www.w3.org/2000/svg">
<path d="M14.1788 0.140625C14.352 0.140625 14.5127 0.224111 14.6126 0.361932L14.6515 0.424239L17.5135 5.79048L17.5441 5.86363L17.5524 5.89063L17.5645 5.94584L17.5712 6.0087L17.5697 6.0797L17.5717 6.03348C17.5717 6.10855 17.5562 6.18005 17.5283 6.24498L17.5077 6.28755L17.4787 6.33513L17.4411 6.38405L9.42874 15.644C9.35724 15.74 9.25931 15.8033 9.15296 15.8337L9.11153 15.8438L9.04196 15.8534L9.0001 15.8549L8.92824 15.8501L8.86746 15.8386L8.79367 15.8143L8.77531 15.8056C8.71081 15.7771 8.65153 15.7346 8.60196 15.6788L0.55075 6.3737L0.506385 6.31113L0.472164 6.24463L0.447393 6.1737L0.430864 6.08005L0.430664 5.98905L0.441278 5.91855L0.448128 5.89055L0.472343 5.82191L0.491871 5.78141L3.34901 0.424239C3.43048 0.271489 3.57981 0.168911 3.74841 0.145654L3.8217 0.140625H14.1788ZM11.7902 6.5692H6.2081L9.00096 13.8263L11.7902 6.5692ZM5.06099 6.5692H2.13527L7.40167 12.6535L5.06099 6.5692ZM15.8631 6.5692H12.9395L10.6017 12.6485L15.8631 6.5692ZM6.16024 1.21134H4.14241L1.85599 5.49777H5.0167L6.16024 1.21134ZM10.731 1.21134H7.26881L6.12527 5.49777H11.8738L10.731 1.21134ZM13.8574 1.21134H11.8395L12.9831 5.49777H16.1424L13.8574 1.21134Z" fill="#AE0E0E"/>
</svg>
