<svg width="62" height="44" viewBox="0 0 62 44" fill="none" xmlns="http://www.w3.org/2000/svg">
<path d="M30.8213 1.25C44.1415 1.25019 55.5115 9.53633 60.1172 21.2236L60.2979 21.6816L60.1172 22.1396C55.5115 33.827 44.1415 42.1131 30.8213 42.1133C17.5008 42.1133 6.13017 33.8271 1.52441 22.1396L1.34375 21.6816L1.52441 21.2236C6.13017 9.53619 17.5008 1.25 30.8213 1.25ZM30.8213 10.1436C24.4528 10.1436 19.2833 15.3132 19.2832 21.6816C19.2832 28.0502 24.4527 33.2197 30.8213 33.2197C37.1896 33.2195 42.3584 28.05 42.3584 21.6816C42.3583 15.3133 37.1896 10.1438 30.8213 10.1436Z" stroke="#A49A99" stroke-width="2.5"/>
</svg>
