<svg width="14" height="30" viewBox="0 0 14 30" fill="none" xmlns="http://www.w3.org/2000/svg">
<path d="M9.5 22.4999C9.5 23.1903 10.0596 23.7499 10.75 23.7499C11.4404 23.7499 12 23.1903 12 22.4999C12 21.8096 11.4404 21.2499 10.75 21.2499C10.0596 21.2499 9.5 21.8096 9.5 22.4999Z" stroke="white" stroke-width="2.5" stroke-linecap="round" stroke-linejoin="round"/>
<path d="M2 22.4999C2 23.1903 2.55965 23.7499 3.25 23.7499C3.94035 23.7499 4.5 23.1903 4.5 22.4999C4.5 21.8096 3.94035 21.2499 3.25 21.2499C2.55965 21.2499 2 21.8096 2 22.4999Z" stroke="white" stroke-width="2.5" stroke-linecap="round" stroke-linejoin="round"/>
<path d="M9.5 14.9999C9.5 15.6903 10.0596 16.2499 10.75 16.2499C11.4404 16.2499 12 15.6903 12 14.9999C12 14.3096 11.4404 13.7499 10.75 13.7499C10.0596 13.7499 9.5 14.3096 9.5 14.9999Z" stroke="white" stroke-width="2.5" stroke-linecap="round" stroke-linejoin="round"/>
<path d="M2 14.9999C2 15.6903 2.55965 16.2499 3.25 16.2499C3.94035 16.2499 4.5 15.6903 4.5 14.9999C4.5 14.3096 3.94035 13.7499 3.25 13.7499C2.55965 13.7499 2 14.3096 2 14.9999Z" stroke="white" stroke-width="2.5" stroke-linecap="round" stroke-linejoin="round"/>
<path d="M9.5 7.49994C9.5 8.19029 10.0596 8.74994 10.75 8.74994C11.4404 8.74994 12 8.19029 12 7.49994C12 6.80959 11.4404 6.24994 10.75 6.24994C10.0596 6.24994 9.5 6.80959 9.5 7.49994Z" stroke="white" stroke-width="2.5" stroke-linecap="round" stroke-linejoin="round"/>
<path d="M2 7.5C2 8.19035 2.55965 8.75 3.25 8.75C3.94035 8.75 4.5 8.19035 4.5 7.5C4.5 6.80965 3.94035 6.25 3.25 6.25C2.55965 6.25 2 6.80965 2 7.5Z" stroke="white" stroke-width="2.5" stroke-linecap="round" stroke-linejoin="round"/>
</svg>
