<svg width="14" height="30" viewBox="0 0 14 30" fill="none" xmlns="http://www.w3.org/2000/svg">
<path d="M9.5 22.5C9.5 23.1904 10.0596 23.75 10.75 23.75C11.4404 23.75 12 23.1904 12 22.5C12 21.8096 11.4404 21.25 10.75 21.25C10.0596 21.25 9.5 21.8096 9.5 22.5Z" stroke="#A49A99" stroke-width="2.5" stroke-linecap="round" stroke-linejoin="round"/>
<path d="M2 22.5C2 23.1904 2.55965 23.75 3.25 23.75C3.94035 23.75 4.5 23.1904 4.5 22.5C4.5 21.8096 3.94035 21.25 3.25 21.25C2.55965 21.25 2 21.8096 2 22.5Z" stroke="#A49A99" stroke-width="2.5" stroke-linecap="round" stroke-linejoin="round"/>
<path d="M9.5 15C9.5 15.6904 10.0596 16.25 10.75 16.25C11.4404 16.25 12 15.6904 12 15C12 14.3096 11.4404 13.75 10.75 13.75C10.0596 13.75 9.5 14.3096 9.5 15Z" stroke="#A49A99" stroke-width="2.5" stroke-linecap="round" stroke-linejoin="round"/>
<path d="M2 15C2 15.6904 2.55965 16.25 3.25 16.25C3.94035 16.25 4.5 15.6904 4.5 15C4.5 14.3096 3.94035 13.75 3.25 13.75C2.55965 13.75 2 14.3096 2 15Z" stroke="#A49A99" stroke-width="2.5" stroke-linecap="round" stroke-linejoin="round"/>
<path d="M9.5 7.5C9.5 8.19035 10.0596 8.75 10.75 8.75C11.4404 8.75 12 8.19035 12 7.5C12 6.80965 11.4404 6.25 10.75 6.25C10.0596 6.25 9.5 6.80965 9.5 7.5Z" stroke="#A49A99" stroke-width="2.5" stroke-linecap="round" stroke-linejoin="round"/>
<path d="M2 7.5C2 8.19035 2.55965 8.75 3.25 8.75C3.94035 8.75 4.5 8.19035 4.5 7.5C4.5 6.80965 3.94035 6.25 3.25 6.25C2.55965 6.25 2 6.80965 2 7.5Z" stroke="#A49A99" stroke-width="2.5" stroke-linecap="round" stroke-linejoin="round"/>
</svg>
