<svg width="15" height="15" viewBox="0 0 15 15" fill="none" xmlns="http://www.w3.org/2000/svg">
<g clip-path="url(#clip0_5175_9148)">
<path d="M8 9.49933L5 10.0393L5.5 6.99933L11.23 1.28933C11.323 1.1956 11.4336 1.12121 11.5554 1.07044C11.6773 1.01967 11.808 0.99353 11.94 0.99353C12.072 0.99353 12.2027 1.01967 12.3246 1.07044C12.4464 1.12121 12.557 1.1956 12.65 1.28933L13.71 2.34933C13.8037 2.44229 13.8781 2.55289 13.9289 2.67475C13.9797 2.79661 14.0058 2.92732 14.0058 3.05933C14.0058 3.19134 13.9797 3.32205 13.9289 3.44391C13.8781 3.56576 13.8037 3.67637 13.71 3.76933L8 9.49933Z" stroke="white" stroke-linecap="round" stroke-linejoin="round"/>
<path d="M12.5 9.99872V12.9987C12.5 13.2639 12.3946 13.5183 12.2071 13.7058C12.0196 13.8934 11.7652 13.9987 11.5 13.9987H2C1.73478 13.9987 1.48043 13.8934 1.29289 13.7058C1.10536 13.5183 1 13.2639 1 12.9987V3.49872C1 3.2335 1.10536 2.97915 1.29289 2.79161C1.48043 2.60408 1.73478 2.49872 2 2.49872H5" stroke="white" stroke-linecap="round" stroke-linejoin="round"/>
</g>
<defs>
<clipPath id="clip0_5175_9148">
<rect width="14" height="14" fill="white" transform="translate(0.5 0.5)"/>
</clipPath>
</defs>
</svg>
