<svg width="14" height="14" viewBox="0 0 14 14" fill="none" xmlns="http://www.w3.org/2000/svg">
<g clip-path="url(#clip0_5248_3646)">
<path d="M6.13 12.0618C4.6 13.6018 2 14.1118 0.5 12.5718C2.5 10.5018 0.5 9.50179 2 8.00179C2.26339 7.70839 2.58383 7.47179 2.94176 7.30643C3.29968 7.14107 3.68757 7.05044 4.0817 7.04007C4.47584 7.02969 4.86796 7.0998 5.23408 7.2461C5.60021 7.3924 5.93266 7.61182 6.21111 7.89096C6.48956 8.17009 6.70817 8.50308 6.85358 8.86956C6.99899 9.23604 7.06813 9.62833 7.0568 10.0224C7.04546 10.4165 6.95388 10.8042 6.78765 11.1617C6.62142 11.5192 6.38404 11.8391 6.09 12.1018L6.13 12.0618Z" stroke="white" stroke-linecap="round" stroke-linejoin="round"/>
<path d="M12.9201 1.08124C12.7262 0.888535 12.4948 0.737644 12.2402 0.637886C11.9857 0.538128 11.7134 0.491621 11.4401 0.501238C11.1671 0.50866 10.8984 0.571938 10.6508 0.687169C10.4031 0.8024 10.1817 0.967143 10.0001 1.17124L4.62012 7.17124C5.19703 7.28548 5.72448 7.5754 6.13012 8.00124C6.49495 8.36459 6.76013 8.81573 6.90012 9.31124L12.8301 4.00124C13.033 3.82084 13.197 3.60101 13.3122 3.35517C13.4274 3.10932 13.4913 2.84259 13.5001 2.57124C13.5111 2.29634 13.4653 2.02213 13.3655 1.76576C13.2657 1.50938 13.1141 1.27635 12.9201 1.08124V1.08124Z" stroke="white" stroke-linecap="round" stroke-linejoin="round"/>
</g>
<defs>
<clipPath id="clip0_5248_3646">
<rect width="14" height="14" fill="white"/>
</clipPath>
</defs>
</svg>
