<svg width="12" height="12" viewBox="0 0 12 12" fill="none" xmlns="http://www.w3.org/2000/svg">
<g clip-path="url(#clip0_5297_3416)">
<path d="M6.42836 7.71256L3.85693 8.17542L4.28551 5.5697L9.19693 0.675416C9.27662 0.595078 9.37142 0.531311 9.47587 0.487795C9.58032 0.444279 9.69235 0.421875 9.8055 0.421875C9.91866 0.421875 10.0307 0.444279 10.1351 0.487795C10.2396 0.531311 10.3344 0.595078 10.4141 0.675416L11.3226 1.58399C11.403 1.66367 11.4668 1.75847 11.5103 1.86292C11.5538 1.96737 11.5762 2.07941 11.5762 2.19256C11.5762 2.30571 11.5538 2.41775 11.5103 2.5222C11.4668 2.62665 11.403 2.72145 11.3226 2.80113L6.42836 7.71256Z" stroke="#AE0E0E" stroke-width="0.857143" stroke-linecap="round" stroke-linejoin="round"/>
<path d="M10.2859 8.13951V10.7109C10.2859 10.9383 10.1955 11.1563 10.0348 11.317C9.87406 11.4778 9.65604 11.5681 9.42871 11.5681H1.28585C1.05853 11.5681 0.840508 11.4778 0.679762 11.317C0.519017 11.1563 0.428711 10.9383 0.428711 10.7109V2.56808C0.428711 2.34075 0.519017 2.12273 0.679762 1.96199C0.840508 1.80124 1.05853 1.71094 1.28585 1.71094H3.85728" stroke="#AE0E0E" stroke-width="0.857143" stroke-linecap="round" stroke-linejoin="round"/>
</g>
<defs>
<clipPath id="clip0_5297_3416">
<rect width="12" height="12" fill="white"/>
</clipPath>
</defs>
</svg>
