<svg width="14" height="14" viewBox="0 0 14 14" fill="none" xmlns="http://www.w3.org/2000/svg">
<g clip-path="url(#clip0_5388_7957)">
<path d="M7.00012 5.00195V8.00195" stroke="#FF4C4C" stroke-width="1.0875" stroke-linecap="round" stroke-linejoin="round"/>
<path d="M7.00006 11.5C7.2762 11.5 7.50006 11.2761 7.50006 11C7.50006 10.7239 7.2762 10.5 7.00006 10.5C6.72392 10.5 6.50006 10.7239 6.50006 11C6.50006 11.2761 6.72392 11.5 7.00006 11.5Z" stroke="#FF4C4C" stroke-width="1.0875" stroke-linecap="round" stroke-linejoin="round"/>
<path d="M7.88997 1.0499C7.80605 0.886097 7.67855 0.748632 7.52152 0.652642C7.36449 0.556651 7.18401 0.505859 6.99997 0.505859C6.81592 0.505859 6.63544 0.556651 6.47841 0.652642C6.32138 0.748632 6.19388 0.886097 6.10997 1.0499L0.609965 12.0499C0.533255 12.2021 0.496733 12.3714 0.503867 12.5418C0.511001 12.7121 0.561555 12.8777 0.650728 13.023C0.7399 13.1683 0.864731 13.2884 1.01336 13.3718C1.162 13.4553 1.3295 13.4994 1.49996 13.4999H12.5C12.6704 13.4994 12.8379 13.4553 12.9866 13.3718C13.1352 13.2884 13.26 13.1683 13.3492 13.023C13.4384 12.8777 13.4889 12.7121 13.4961 12.5418C13.5032 12.3714 13.4667 12.2021 13.39 12.0499L7.88997 1.0499Z" stroke="#FF4C4C" stroke-width="1.0875" stroke-linecap="round" stroke-linejoin="round"/>
</g>
<defs>
<clipPath id="clip0_5388_7957">
<rect width="14" height="14" fill="white"/>
</clipPath>
</defs>
</svg>
