<svg width="38" height="38" viewBox="0 0 38 38" fill="none" xmlns="http://www.w3.org/2000/svg">
<path fill-rule="evenodd" clip-rule="evenodd" d="M17.0998 3.79994C9.75447 3.79994 3.79994 9.75447 3.79994 17.0998C3.79994 24.445 9.75447 30.3996 17.0998 30.3996C24.445 30.3996 30.3996 24.445 30.3996 17.0998C30.3996 9.75447 24.445 3.79994 17.0998 3.79994ZM0 17.0998C0 7.65582 7.65582 0 17.0998 0C26.5437 0 34.1995 7.65582 34.1995 17.0998C34.1995 26.5437 26.5437 34.1995 17.0998 34.1995C7.65582 34.1995 0 26.5437 0 17.0998Z" fill="#A49A99"/>
<path fill-rule="evenodd" clip-rule="evenodd" d="M26.492 26.4911C27.234 25.7491 28.437 25.7491 29.179 26.4911L37.4439 34.7559C38.1859 35.4979 38.1859 36.7009 37.4439 37.4429C36.7019 38.1849 35.4989 38.1849 34.7569 37.4429L26.492 29.178C25.7501 28.436 25.7501 27.233 26.492 26.4911Z" fill="#A49A99"/>
</svg>
