<svg width="22" height="16" viewBox="0 0 22 16" fill="none" xmlns="http://www.w3.org/2000/svg">
<path d="M11 1C15.7168 1 19.7548 3.89146 21.458 8C19.7548 12.1085 15.7168 15 11 15C6.28311 15 2.24411 12.1087 0.541016 8C2.24411 3.89127 6.28311 1 11 1ZM11 2.5C7.96386 2.5 5.5 4.96386 5.5 8C5.5 11.0361 7.96386 13.5 11 13.5C14.0361 13.5 16.5 11.0361 16.5 8C16.5 4.96386 14.0361 2.5 11 2.5ZM11 5.5C12.3839 5.5 13.5 6.61614 13.5 8C13.5 9.38386 12.3839 10.5 11 10.5C9.61614 10.5 8.5 9.38386 8.5 8C8.5 6.61614 9.61614 5.5 11 5.5Z" fill="#262626" stroke="black"/>
</svg>
