<svg width="22" height="23" viewBox="0 0 22 23" fill="none" xmlns="http://www.w3.org/2000/svg">
<g clip-path="url(#clip0_5515_2925)">
<path fill-rule="evenodd" clip-rule="evenodd" d="M4.67128 5.21286C4.94894 4.34022 5.7594 3.74759 6.67515 3.74759H10.9889C12.4985 3.74759 13.5164 5.2912 12.9217 6.67881L11.6545 9.63561H15.2492C17.1398 9.63561 18.0701 11.9363 16.7107 13.2504L7.83872 21.8267C6.84845 22.7839 5.25956 21.6884 5.80209 20.4225L8.26209 14.6825H4.53406C3.11083 14.6825 2.09865 13.2983 2.53019 11.942L4.67128 5.21286ZM6.67515 5.42988C6.49201 5.42988 6.32991 5.54841 6.27438 5.72294L4.13328 12.4521C4.04697 12.7234 4.24941 13.0002 4.53406 13.0002H9.28259C10.0072 13.0002 10.4958 13.7412 10.2104 14.4072L8.17102 19.1656L15.5415 12.0409C15.8133 11.778 15.6273 11.3179 15.2492 11.3179H10.634C9.90932 11.3179 9.42079 10.577 9.70627 9.91092L11.3754 6.01613C11.4944 5.73861 11.2908 5.42988 10.9889 5.42988H6.67515Z" fill="white"/>
</g>
<rect x="12" width="10" height="10" rx="5" fill="#AE0E0E"/>
<defs>
<clipPath id="clip0_5515_2925">
<rect width="19" height="19" fill="white" transform="translate(0.5 3.5)"/>
</clipPath>
</defs>
</svg>
