<svg width="14" height="14" viewBox="0 0 14 14" fill="none" xmlns="http://www.w3.org/2000/svg">
<g clip-path="url(#clip0_8000_3383)">
<path d="M13.5 8L9.38 13.5L6.63 11.44" stroke="white" stroke-linecap="round" stroke-linejoin="round"/>
<path d="M5 5C6.24264 5 7.25 3.99264 7.25 2.75C7.25 1.50736 6.24264 0.5 5 0.5C3.75736 0.5 2.75 1.50736 2.75 2.75C2.75 3.99264 3.75736 5 5 5Z" stroke="white" stroke-linecap="round" stroke-linejoin="round"/>
<path d="M3 12.5H0.5V11C0.500782 10.1106 0.765127 9.2413 1.25965 8.50201C1.75417 7.76271 2.45668 7.18655 3.27846 6.84628C4.10024 6.50601 5.00442 6.4169 5.87682 6.59021C6.74921 6.76351 7.55068 7.19146 8.18 7.82" stroke="white" stroke-linecap="round" stroke-linejoin="round"/>
</g>
<defs>
<clipPath id="clip0_8000_3383">
<rect width="14" height="14" fill="white"/>
</clipPath>
</defs>
</svg>
