<svg width="15" height="15" viewBox="0 0 15 15" fill="none" xmlns="http://www.w3.org/2000/svg">
<g clip-path="url(#clip0_6070_9798)">
<path d="M0.88875 12.4116C0.88875 12.0587 1.15378 11.9482 1.25943 11.8993L5.15848 10.0592C5.43815 9.93095 5.63082 9.66637 5.66855 9.36095C5.70629 9.05552 5.58287 8.75276 5.34315 8.56054C4.42066 7.82006 3.99094 6.19261 3.99094 5.32562V3.10729C3.99094 2.17948 5.60596 0.889859 7.10023 0.889859C8.60782 0.889859 10.2064 2.15995 10.2064 3.10729V5.32606C10.2064 6.18018 9.85127 7.81385 8.89904 8.5632C8.65621 8.75409 8.53013 9.05819 8.56653 9.36539C8.60294 9.67259 8.79649 9.9385 9.0775 10.0677L10.408 10.699L10.6273 9.81287L9.44774 9.26106C10.6779 8.29329 11.0938 6.39194 11.0938 5.32606V3.10774C11.0938 1.63833 9.05974 0.00244141 7.09934 0.00244141C5.13894 0.00244141 3.10219 1.63877 3.10219 3.10774V5.32606C3.10219 6.29561 3.54479 8.25689 4.78602 9.25307L0.886974 11.0932C0.886974 11.0932 0 11.4883 0 11.9806V13.3128C0 13.8034 0.397318 14.2002 0.886974 14.2002H10.6521V13.3124L0.887418 13.3128V12.4121L0.88875 12.4116ZM13.761 11.5402H12.4292V10.2084C12.4292 9.96336 12.2303 9.76448 11.9852 9.76448C11.7402 9.76448 11.5413 9.96336 11.5413 10.2084V11.5402H10.2095C9.96447 11.5402 9.76559 11.7391 9.76559 11.9841C9.76559 12.2292 9.96447 12.4281 10.2095 12.4281H11.5413V13.7599C11.5413 14.0049 11.7402 14.2038 11.9852 14.2038C12.2303 14.2038 12.4292 14.0049 12.4292 13.7599V12.4281H13.761C14.006 12.4281 14.2049 12.2292 14.2049 11.9841C14.2049 11.7391 14.006 11.5402 13.761 11.5402Z" fill="white"/>
</g>
<defs>
<clipPath id="clip0_6070_9798">
<rect width="14.2058" height="14.2058" fill="white"/>
</clipPath>
</defs>
</svg>
