<svg width="24" height="24" viewBox="0 0 24 24" fill="none" xmlns="http://www.w3.org/2000/svg">
<path fill-rule="evenodd" clip-rule="evenodd" d="M12 4.64C14.2534 4.64 15.7734 5.61333 16.64 6.42667L20.0267 3.12C17.9467 1.18667 15.24 0 12 0C7.3067 0 3.25336 2.69333 1.28003 6.61333L5.16003 9.62667C6.13336 6.73333 8.8267 4.64 12 4.64Z" fill="#EA4335"/>
<path fill-rule="evenodd" clip-rule="evenodd" d="M23.52 12.2666C23.52 11.2799 23.44 10.5599 23.2667 9.81323H12V14.2666H18.6133C18.48 15.3732 17.76 17.0399 16.16 18.1599L19.9467 21.0932C22.2133 18.9999 23.52 15.9199 23.52 12.2666Z" fill="#4285F4"/>
<path fill-rule="evenodd" clip-rule="evenodd" d="M5.17333 14.3733C4.92 13.6266 4.77333 12.8266 4.77333 11.9999C4.77333 11.1733 4.92 10.3733 5.16 9.62661L1.28 6.61328C0.466667 8.23995 0 10.0666 0 11.9999C0 13.9333 0.466667 15.7599 1.28 17.3866L5.17333 14.3733Z" fill="#FBBC05"/>
<path fill-rule="evenodd" clip-rule="evenodd" d="M11.9999 24C15.2399 24 17.9599 22.9333 19.9465 21.0933L16.1599 18.16C15.1465 18.8666 13.7865 19.36 11.9999 19.36C8.82655 19.36 6.13321 17.2666 5.17321 14.3733L1.29321 17.3866C3.26655 21.3066 7.30655 24 11.9999 24Z" fill="#34A853"/>
</svg>
