<svg width="25" height="25" viewBox="0 0 25 25" fill="none" xmlns="http://www.w3.org/2000/svg">
<g clip-path="url(#clip0_7707_5875)">
<path d="M12.5 24.1072C18.9104 24.1072 24.1071 18.9105 24.1071 12.5C24.1071 6.08958 18.9104 0.892883 12.5 0.892883C6.08952 0.892883 0.892822 6.08958 0.892822 12.5C0.892822 18.9105 6.08952 24.1072 12.5 24.1072Z" stroke="#A49A99" stroke-width="1.68" stroke-linecap="round" stroke-linejoin="round"/>
<path d="M6.60693 14.2857C7.49979 17.5 11.0712 19.4643 14.2855 18.5714C16.2498 17.8571 17.8569 16.25 18.3926 14.2857" stroke="#A49A99" stroke-width="1.68" stroke-linecap="round" stroke-linejoin="round"/>
<path d="M8.5715 9.64287C8.37425 9.64287 8.21436 9.48298 8.21436 9.28573C8.21436 9.08849 8.37425 8.92859 8.5715 8.92859" stroke="#A49A99" stroke-width="1.78571" stroke-linecap="round" stroke-linejoin="round"/>
<path d="M8.57153 9.64287C8.76878 9.64287 8.92868 9.48298 8.92868 9.28573C8.92868 9.08849 8.76878 8.92859 8.57153 8.92859" stroke="#A49A99" stroke-width="1.68" stroke-linecap="round" stroke-linejoin="round"/>
<path d="M16.4287 9.64287C16.2314 9.64287 16.0715 9.48298 16.0715 9.28573C16.0715 9.08849 16.2314 8.92859 16.4287 8.92859" stroke="#A49A99" stroke-width="1.78571" stroke-linecap="round" stroke-linejoin="round"/>
<path d="M16.4285 9.64287C16.6257 9.64287 16.7856 9.48298 16.7856 9.28573C16.7856 9.08849 16.6257 8.92859 16.4285 8.92859" stroke="#A49A99" stroke-width="1.68" stroke-linecap="round" stroke-linejoin="round"/>
</g>
<defs>
<clipPath id="clip0_7707_5875">
<rect width="25" height="25" fill="white"/>
</clipPath>
</defs>
</svg>
