<svg width="24" height="24" viewBox="0 0 24 24" fill="none" xmlns="http://www.w3.org/2000/svg">
<path fill-rule="evenodd" clip-rule="evenodd" d="M10.5423 4.20923C11.0609 4.56566 11.5526 5.02241 11.9997 5.58797C12.4469 5.02244 12.9386 4.56572 13.4572 4.20929C19.8981 -0.216661 30.5095 10.8238 11.9997 21.054C-6.50924 10.8238 4.10206 -0.216547 10.5423 4.20923ZM11.9997 18.752C16.1845 16.2893 18.4483 13.9107 19.5281 11.9443C20.661 9.88119 20.502 8.28587 19.9681 7.23844C18.8223 4.99037 15.5867 4.27631 13.5685 6.82851L11.9996 8.8125L10.4309 6.82841C8.41314 4.27647 5.17784 4.99025 4.0319 7.23844C3.49798 8.28591 3.33897 9.88125 4.4718 11.9443C5.55156 13.9107 7.81515 16.2894 11.9997 18.752Z" fill="white"/>
</svg>
