<svg width="24" height="24" viewBox="0 0 24 24" fill="none" xmlns="http://www.w3.org/2000/svg">
<g clip-path="url(#clip0_7447_3522)">
<path d="M12.0003 23.1431C18.1543 23.1431 23.1431 18.1543 23.1431 12.0003C23.1431 5.84625 18.1543 0.857422 12.0003 0.857422C5.84625 0.857422 0.857422 5.84625 0.857422 12.0003C0.857422 18.1543 5.84625 23.1431 12.0003 23.1431Z" stroke="#A49A99" stroke-width="1.71429" stroke-linecap="round" stroke-linejoin="round"/>
<path d="M9.42773 9.42885C9.42773 8.92027 9.57855 8.42311 9.8611 8.00024C10.1437 7.57737 10.5453 7.24779 11.0151 7.05316C11.485 6.85854 12.002 6.80761 12.5008 6.90683C12.9996 7.00605 13.4578 7.25096 13.8174 7.61058C14.1771 7.9702 14.422 8.42838 14.5212 8.92719C14.6204 9.426 14.5695 9.94303 14.3749 10.4129C14.1802 10.8828 13.8506 11.2844 13.4278 11.5669C13.0049 11.8495 12.5077 12.0003 11.9992 12.0003V13.7146" stroke="#A49A99" stroke-width="1.71429" stroke-linecap="round" stroke-linejoin="round"/>
<path d="M12.0008 17.9997C11.7641 17.9997 11.5723 17.8078 11.5723 17.5711C11.5723 17.3345 11.7641 17.1426 12.0008 17.1426" stroke="#A49A99" stroke-width="1.71429" stroke-linecap="round" stroke-linejoin="round"/>
<path d="M12 17.9997C12.2367 17.9997 12.4286 17.8078 12.4286 17.5711C12.4286 17.3345 12.2367 17.1426 12 17.1426" stroke="#A49A99" stroke-width="1.71429" stroke-linecap="round" stroke-linejoin="round"/>
</g>
<defs>
<clipPath id="clip0_7447_3522">
<rect width="24" height="24" fill="white"/>
</clipPath>
</defs>
</svg>
