<svg width="24" height="24" viewBox="0 0 24 24" fill="none" xmlns="http://www.w3.org/2000/svg">
<g clip-path="url(#clip0_7500_3661)">
<path d="M11.9997 23.1426C18.1538 23.1426 23.1426 18.1538 23.1426 11.9997C23.1426 5.8457 18.1538 0.856873 11.9997 0.856873C5.84569 0.856873 0.856865 5.8457 0.856865 11.9997C0.856865 18.1538 5.84569 23.1426 11.9997 23.1426Z" stroke="white" stroke-width="1.71429" stroke-linecap="round" stroke-linejoin="round"/>
<path d="M9.42829 9.4283C9.42829 8.91972 9.5791 8.42256 9.86166 7.99969C10.1442 7.57682 10.5458 7.24724 11.0157 7.05261C11.4855 6.85799 12.0026 6.80706 12.5014 6.90628C13.0002 7.0055 13.4584 7.25041 13.818 7.61003C14.1776 7.96965 14.4225 8.42783 14.5217 8.92664C14.621 9.42545 14.57 9.94248 14.3754 10.4123C14.1808 10.8822 13.8512 11.2838 13.4283 11.5664C13.0055 11.8489 12.5083 11.9997 11.9997 11.9997V13.714" stroke="white" stroke-width="1.71429" stroke-linecap="round" stroke-linejoin="round"/>
<path d="M11.9997 17.9997C11.763 17.9997 11.5712 17.8078 11.5712 17.5711C11.5712 17.3345 11.763 17.1426 11.9997 17.1426" stroke="white" stroke-width="1.71429" stroke-linecap="round" stroke-linejoin="round"/>
<path d="M11.9997 17.9997C12.2364 17.9997 12.4283 17.8078 12.4283 17.5711C12.4283 17.3345 12.2364 17.1426 11.9997 17.1426" stroke="white" stroke-width="1.71429" stroke-linecap="round" stroke-linejoin="round"/>
</g>
<defs>
<clipPath id="clip0_7500_3661">
<rect width="24" height="24" fill="white"/>
</clipPath>
</defs>
</svg>
