<svg width="22" height="22" viewBox="0 0 22 22" fill="none" xmlns="http://www.w3.org/2000/svg">
<path d="M5.34118 9.10694H8.30708M5.34118 12.2227H16.1714M17.7667 3.87759C16.8552 2.96533 15.7728 2.24167 14.5814 1.74791C13.39 1.25416 12.113 1 10.8234 1C9.53377 1 8.25678 1.25416 7.06541 1.74791C5.87404 2.24167 4.79164 2.96533 3.88009 3.87759C2.96783 4.78915 2.24414 5.87156 1.75039 7.06293C1.25664 8.2543 1.0025 9.53128 1.0025 10.8209C1.0025 12.1105 1.25664 13.3876 1.75039 14.5789C2.24414 15.7703 2.96783 16.8527 3.88009 17.7642C5.52376 19.4035 7.69508 20.4074 10.0087 20.5977C12.3223 20.788 14.6285 20.1525 16.5179 18.8039L20.4735 20.958C20.5381 20.9935 20.6124 21.007 20.6853 20.9966C20.7582 20.9862 20.8258 20.9524 20.8779 20.9004C20.9299 20.8483 20.9637 20.7807 20.9741 20.7078C20.9845 20.6349 20.971 20.5605 20.9355 20.496L18.7814 16.5404C20.1399 14.6517 20.7836 12.3419 20.5978 10.0228C20.412 7.70368 19.4087 5.52589 17.7667 3.87759Z" stroke="#ffffff" stroke-width="1.561" stroke-linecap="round" stroke-linejoin="round"/>
</svg>
