<svg width="21" height="21" viewBox="0 0 21 21" fill="none" xmlns="http://www.w3.org/2000/svg">
<g clip-path="url(#clip0_5175_4418)">
<path d="M5.32157 20.1792C4.54798 20.1706 3.78167 20.0287 3.05627 19.7598C2.52656 19.564 2.0473 19.2523 1.65353 18.8475C1.2476 18.4545 0.935428 17.9751 0.740196 17.4449C0.47152 16.7195 0.32984 15.9533 0.321373 15.1798C0.261961 13.8939 0.25 13.5082 0.25 10.25C0.25 6.99176 0.263137 6.60745 0.320784 5.32059C0.330279 4.54741 0.472134 3.78156 0.740196 3.05627C0.936378 2.52647 1.24811 2.04702 1.65275 1.65275C2.04603 1.24718 2.52551 0.935298 3.05569 0.740196C3.78108 0.471297 4.5474 0.329417 5.32098 0.320784C6.60725 0.261961 6.99353 0.25 10.25 0.25C13.5065 0.25 13.8925 0.263137 15.1794 0.320784C15.9528 0.330212 16.7188 0.472068 17.4443 0.740196C17.9743 0.935556 18.4536 1.24733 18.8471 1.65255C19.2524 2.04613 19.5643 2.52561 19.7598 3.05569C20.0288 3.78107 20.1707 4.54738 20.1794 5.32098C20.2382 6.60784 20.2502 6.99314 20.2502 10.2504C20.2502 13.5076 20.2382 13.8929 20.1794 15.1798C20.1701 15.9533 20.0281 16.7194 19.7598 17.4449C19.5568 17.971 19.2459 18.4488 18.8471 18.8475C18.4483 19.2462 17.9705 19.557 17.4443 19.7598C16.7189 20.0288 15.9526 20.1707 15.179 20.1794C13.8933 20.2382 13.5069 20.2502 10.2496 20.2502C6.99235 20.2502 6.60706 20.2388 5.32137 20.1794" fill="url(#paint0_radial_5175_4418)"/>
<path d="M5.32157 20.1792C4.54798 20.1706 3.78167 20.0287 3.05627 19.7598C2.52656 19.564 2.0473 19.2523 1.65353 18.8475C1.2476 18.4545 0.935428 17.9751 0.740196 17.4449C0.47152 16.7195 0.32984 15.9533 0.321373 15.1798C0.261961 13.8939 0.25 13.5082 0.25 10.25C0.25 6.99176 0.263137 6.60745 0.320784 5.32059C0.330279 4.54741 0.472134 3.78156 0.740196 3.05627C0.936378 2.52647 1.24811 2.04702 1.65275 1.65275C2.04603 1.24718 2.52551 0.935298 3.05569 0.740196C3.78108 0.471297 4.5474 0.329417 5.32098 0.320784C6.60725 0.261961 6.99353 0.25 10.25 0.25C13.5065 0.25 13.8925 0.263137 15.1794 0.320784C15.9528 0.330212 16.7188 0.472068 17.4443 0.740196C17.9743 0.935556 18.4536 1.24733 18.8471 1.65255C19.2524 2.04613 19.5643 2.52561 19.7598 3.05569C20.0288 3.78107 20.1707 4.54738 20.1794 5.32098C20.2382 6.60784 20.2502 6.99314 20.2502 10.2504C20.2502 13.5076 20.2382 13.8929 20.1794 15.1798C20.1701 15.9533 20.0281 16.7194 19.7598 17.4449C19.5568 17.971 19.2459 18.4488 18.8471 18.8475C18.4483 19.2462 17.9705 19.557 17.4443 19.7598C16.7189 20.0288 15.9526 20.1707 15.179 20.1794C13.8933 20.2382 13.5069 20.2502 10.2496 20.2502C6.99235 20.2502 6.60706 20.2388 5.32137 20.1794" fill="url(#paint1_radial_5175_4418)"/>
<path d="M7.79455 10.2929C7.79459 9.80304 7.93988 9.32421 8.21206 8.91694C8.48424 8.50967 8.87108 8.19226 9.32366 8.00485C9.77624 7.81744 10.2742 7.76844 10.7547 7.86406C11.2351 7.95968 11.6764 8.19561 12.0227 8.54202C12.369 8.88844 12.6048 9.32978 12.7003 9.81023C12.7959 10.2907 12.7467 10.7886 12.5592 11.2412C12.3717 11.6937 12.0542 12.0805 11.6469 12.3526C11.2395 12.6246 10.7607 12.7698 10.2708 12.7698C9.614 12.7697 8.98412 12.5086 8.51973 12.0441C8.05535 11.5796 7.7945 10.9497 7.79455 10.2929ZM6.45553 10.2929C6.45553 11.0475 6.67929 11.7851 7.09852 12.4126C7.51775 13.04 8.11362 13.529 8.81077 13.8178C9.50792 14.1065 10.2751 14.1821 11.0151 14.0349C11.7552 13.8877 12.4351 13.5243 12.9686 12.9907C13.5022 12.4571 13.8656 11.7773 14.0128 11.0372C14.16 10.2971 14.0845 9.52999 13.7957 8.83284C13.5069 8.13568 13.0179 7.53981 12.3905 7.12058C11.7631 6.70136 11.0254 6.47759 10.2708 6.47759C9.76978 6.47757 9.27364 6.57624 8.81074 6.76796C8.34784 6.95969 7.92723 7.24072 7.57294 7.59501C7.21865 7.9493 6.93762 8.3699 6.7459 8.83281C6.55417 9.29571 6.4555 9.79185 6.45553 10.2929ZM13.3455 6.32642C13.3454 6.50275 13.3977 6.67515 13.4956 6.82181C13.5935 6.96847 13.7327 7.08281 13.8955 7.15036C14.0584 7.21791 14.2377 7.23565 14.4106 7.20132C14.5836 7.167 14.7425 7.08215 14.8673 6.95752C14.992 6.83289 15.077 6.67406 15.1115 6.50113C15.1459 6.3282 15.1284 6.14893 15.0609 5.98598C14.9935 5.82304 14.8793 5.68375 14.7327 5.58572C14.5862 5.48769 14.4138 5.43532 14.2375 5.43524C14.0011 5.43535 13.7745 5.52926 13.6073 5.69635C13.4401 5.86345 13.3461 6.09006 13.3459 6.32642M7.26945 16.3409C6.79829 16.3357 6.33154 16.2495 5.88964 16.086C5.56917 15.9625 5.27811 15.7732 5.0352 15.5304C4.79229 15.2876 4.60291 14.9966 4.47925 14.6762C4.31568 14.2343 4.22945 13.7676 4.22435 13.2964C4.18827 12.5133 4.18121 12.278 4.18121 10.2939C4.18121 8.30975 4.18906 8.07505 4.22435 7.29112C4.23007 6.82002 4.31627 6.35337 4.47925 5.91132C4.60276 5.59074 4.79209 5.29961 5.03501 5.05669C5.27793 4.81376 5.56907 4.62444 5.88964 4.50093C6.33152 4.33736 6.79829 4.25113 7.26945 4.24603C8.05258 4.20995 8.28788 4.20289 10.2712 4.20289C12.2545 4.20289 12.49 4.21054 13.274 4.24622C13.7451 4.25194 14.2117 4.33815 14.6538 4.50112C14.9743 4.62465 15.2655 4.81397 15.5084 5.0569C15.7513 5.29982 15.9406 5.59095 16.0642 5.91151C16.2277 6.3534 16.3139 6.82016 16.3191 7.29132C16.3551 8.07564 16.3622 8.30975 16.3622 10.2941C16.3622 12.2784 16.3549 12.5129 16.3191 13.2968C16.3136 13.7679 16.2273 14.2346 16.0642 14.6766C15.9405 14.997 15.7511 15.288 15.5082 15.5308C15.2653 15.7736 14.9742 15.9629 14.6538 16.0864C14.2119 16.25 13.7451 16.3362 13.274 16.3413C12.4908 16.3774 12.2555 16.3845 10.2712 16.3845C8.2869 16.3845 8.05239 16.3772 7.26945 16.3413M7.20788 2.90818C6.59138 2.92031 5.9814 3.03699 5.40396 3.25328C4.91033 3.44413 4.46203 3.73604 4.0878 4.11027C3.71358 4.48449 3.42167 4.93279 3.23082 5.42642C3.01456 6.00387 2.89787 6.61384 2.88572 7.23034C2.84906 8.0225 2.84082 8.27583 2.84082 10.2937C2.84082 12.3115 2.84925 12.5647 2.88572 13.357C2.89787 13.9735 3.01456 14.5835 3.23082 15.1609C3.42168 15.6545 3.71359 16.1028 4.08782 16.4771C4.46204 16.8513 4.91034 17.1432 5.40396 17.3341C5.98143 17.5503 6.59139 17.6669 7.20788 17.6792C8.00043 17.7152 8.25337 17.7241 10.2712 17.7241C12.2891 17.7241 12.5422 17.7156 13.3345 17.6792C13.951 17.667 14.561 17.5503 15.1385 17.3341C15.6321 17.1432 16.0804 16.8513 16.4546 16.4771C16.8288 16.1028 17.1207 15.6545 17.3116 15.1609C17.5281 14.5836 17.6448 13.9735 17.6567 13.357C17.6928 12.5643 17.701 12.3115 17.701 10.2937C17.701 8.27583 17.6926 8.02269 17.6567 7.23034C17.6446 6.61384 17.5279 6.00386 17.3116 5.42642C17.1207 4.93288 16.8289 4.48466 16.4548 4.11044C16.0807 3.73622 15.6325 3.44427 15.1391 3.25328C14.5617 3.03685 13.9517 2.92016 13.3351 2.90818C12.5428 2.87191 12.2896 2.86328 10.2722 2.86328C8.25474 2.86328 8.00101 2.87171 7.20827 2.90818" fill="white"/>
</g>
<defs>
<radialGradient id="paint0_radial_5175_4418" cx="0" cy="0" r="1" gradientUnits="userSpaceOnUse" gradientTransform="translate(1.54431 19.812) scale(25.3925)">
<stop offset="0.09" stop-color="#FA8F21"/>
<stop offset="0.78" stop-color="#D82D7E"/>
</radialGradient>
<radialGradient id="paint1_radial_5175_4418" cx="0" cy="0" r="1" gradientUnits="userSpaceOnUse" gradientTransform="translate(14.1033 19.1696) scale(22.3457)">
<stop offset="0.64" stop-color="#8C3AAA" stop-opacity="0"/>
<stop offset="1" stop-color="#8C3AAA"/>
</radialGradient>
<clipPath id="clip0_5175_4418">
<rect width="20" height="20" fill="white" transform="translate(0.25 0.25)"/>
</clipPath>
</defs>
</svg>
