<svg width="31" height="28" viewBox="0 0 31 28" fill="none" xmlns="http://www.w3.org/2000/svg">
<path d="M19.8442 2.50677C21.4384 2.03565 23.1424 2.09367 24.7009 2.67217C26.6136 3.38334 28.1656 4.82492 29.0157 6.68C29.8659 8.53509 29.9446 10.6519 29.2346 12.565C27.7573 16.5537 15.8575 26.4923 15.8575 26.4923C15.8575 26.4923 3.95761 16.5537 2.48032 12.565C1.77057 10.6512 1.85003 8.53389 2.7012 6.6787C3.55237 4.8235 5.10557 3.38233 7.01918 2.67217C8.57692 2.09405 10.28 2.0362 11.8734 2.50732C13.4668 2.97845 14.8646 3.95318 15.8575 5.28546C16.8512 3.95276 18.2499 2.97788 19.8442 2.50677Z" fill="#AE0E0E"/>
<path d="M14.9558 8.01588C14.9552 7.04516 15.256 6.09823 15.8167 5.30583M24.7009 2.67217C23.1424 2.09367 21.4384 2.03565 19.8442 2.50677C18.2499 2.97788 16.8512 3.95276 15.8575 5.28546C14.8646 3.95318 13.4668 2.97845 11.8734 2.50732C10.28 2.0362 8.57692 2.09405 7.01918 2.67217C5.10557 3.38233 3.55237 4.8235 2.7012 6.6787C1.85003 8.53389 1.77057 10.6512 2.48032 12.565C3.95761 16.5537 15.8575 26.4923 15.8575 26.4923C15.8575 26.4923 27.7573 16.5537 29.2346 12.565C29.9446 10.6519 29.8659 8.53509 29.0157 6.68C28.1656 4.82492 26.6136 3.38334 24.7009 2.67217Z" stroke="white" stroke-width="2.54706" stroke-linecap="round" stroke-linejoin="round"/>
</svg>
