<svg width="12" height="12" viewBox="0 0 12 12" fill="none" xmlns="http://www.w3.org/2000/svg">
<g clip-path="url(#clip0_6049_9258)">
<path d="M3.42831 5.55859L0.676881 8.28431C0.596543 8.36399 0.532776 8.45879 0.48926 8.56324C0.445744 8.66769 0.42334 8.77973 0.42334 8.89288C0.42334 9.00603 0.445744 9.11807 0.48926 9.22252C0.532776 9.32697 0.596543 9.42177 0.676881 9.50145L2.49402 11.3186C2.57371 11.3989 2.66851 11.4627 2.77296 11.5062C2.87741 11.5497 2.98944 11.5721 3.1026 11.5721C3.21575 11.5721 3.32778 11.5497 3.43223 11.5062C3.53668 11.4627 3.63148 11.3989 3.71117 11.3186L6.43688 8.56717" stroke="white" stroke-width="0.857143" stroke-linecap="round" stroke-linejoin="round"/>
<path d="M8.57107 6.43542L11.2968 3.7097C11.3771 3.63002 11.4409 3.53522 11.4844 3.43077C11.5279 3.32632 11.5503 3.21428 11.5503 3.10113C11.5503 2.98798 11.5279 2.87594 11.4844 2.77149C11.4409 2.66704 11.3771 2.57224 11.2968 2.49256L9.50536 0.675416C9.42567 0.595078 9.33087 0.531311 9.22642 0.487795C9.12197 0.444279 9.00994 0.421875 8.89679 0.421875C8.78363 0.421875 8.6716 0.444279 8.56715 0.487795C8.4627 0.531311 8.3679 0.595078 8.28821 0.675416L5.5625 3.42685" stroke="white" stroke-width="0.857143" stroke-linecap="round" stroke-linejoin="round"/>
<path d="M7.71422 4.28516L4.28564 7.71373" stroke="white" stroke-width="0.857143" stroke-linecap="round" stroke-linejoin="round"/>
</g>
<defs>
<clipPath id="clip0_6049_9258">
<rect width="12" height="12" fill="white"/>
</clipPath>
</defs>
</svg>
