<svg width="19" height="19" viewBox="0 0 19 19" fill="none" xmlns="http://www.w3.org/2000/svg">
<g clip-path="url(#clip0_6049_9180)">
<path d="M14.9287 12.2137L17.643 11.5352L18.3216 14.2494" stroke="#A49A99" stroke-width="1.35714" stroke-linecap="round" stroke-linejoin="round"/>
<path d="M17.6428 11.5352C17.0401 13.2433 15.9451 14.7347 14.496 15.8215C13.0469 16.9084 11.3086 17.5419 9.49999 17.6423C7.82814 17.6426 6.19672 17.1283 4.82732 16.1692C3.45792 15.2102 2.41692 13.8528 1.8457 12.2816" stroke="#A49A99" stroke-width="1.35714" stroke-linecap="round" stroke-linejoin="round"/>
<path d="M4.07157 6.7779L1.35728 7.45647L0.678711 4.74219" stroke="#A49A99" stroke-width="1.35714" stroke-linecap="round" stroke-linejoin="round"/>
<path d="M1.35742 7.4548C2.49742 4.33337 5.99885 1.34766 9.50028 1.34766C11.1803 1.35238 12.8177 1.87661 14.188 2.84849C15.5584 3.82037 16.5946 5.19231 17.1546 6.77623" stroke="#A49A99" stroke-width="1.35714" stroke-linecap="round" stroke-linejoin="round"/>
</g>
<defs>
<clipPath id="clip0_6049_9180">
<rect width="19" height="19" fill="white"/>
</clipPath>
</defs>
</svg>
