<svg width="11" height="11" viewBox="0 0 11 11" fill="none" xmlns="http://www.w3.org/2000/svg">
<path d="M9.03572 3.92829C9.03572 5.88472 5.50001 10.6069 5.50001 10.6069C5.50001 10.6069 1.96429 5.88472 1.96429 3.92829C1.96429 2.99056 2.33681 2.09124 2.99988 1.42816C3.66296 0.76509 4.56228 0.392578 5.50001 0.392578C6.43774 0.392578 7.33706 0.76509 8.00014 1.42816C8.66321 2.09124 9.03572 2.99056 9.03572 3.92829V3.92829Z" stroke="#AE0E0E" stroke-width="0.785714" stroke-linecap="round" stroke-linejoin="round"/>
<path d="M5.49998 5.10714C6.15089 5.10714 6.67855 4.57948 6.67855 3.92857C6.67855 3.27766 6.15089 2.75 5.49998 2.75C4.84908 2.75 4.32141 3.27766 4.32141 3.92857C4.32141 4.57948 4.84908 5.10714 5.49998 5.10714Z" stroke="#AE0E0E" stroke-width="0.785714" stroke-linecap="round" stroke-linejoin="round"/>
</svg>
