<svg width="14" height="14" viewBox="0 0 14 14" fill="none" xmlns="http://www.w3.org/2000/svg">
<path d="M6.5 7H13.5" stroke="#FF4C4C" stroke-linecap="round" stroke-linejoin="round"/>
<path d="M11.5 5L13.5 7L11.5 9" stroke="#FF4C4C" stroke-linecap="round" stroke-linejoin="round"/>
<path d="M11.7 11.4883C10.802 12.4242 9.6446 13.0701 8.37656 13.3429C7.10852 13.6157 5.78787 13.5029 4.58447 13.0189C3.38108 12.535 2.34998 11.7021 1.6238 10.6274C0.897627 9.55272 0.509583 8.28533 0.509583 6.98828C0.509583 5.69123 0.897627 4.42385 1.6238 3.34914C2.34998 2.27443 3.38108 1.44154 4.58447 0.957624C5.78787 0.473704 7.10852 0.360875 8.37656 0.63365C9.6446 0.906426 10.802 1.55233 11.7 2.48828" stroke="#FF4C4C" stroke-linecap="round" stroke-linejoin="round"/>
</svg>
