<svg width="82" height="34" viewBox="0 0 82 34" fill="none" xmlns="http://www.w3.org/2000/svg">
<path d="M4.78276 28.2014C3.5661 28.2014 2.7438 27.9455 2.31587 27.4336C1.89632 26.9134 1.68655 26.1205 1.68655 25.0548V13.2867H0.415345V9.85067H1.68655V5.84825H6.06656V9.85067H7.33777V13.2867H6.06656V23.9976C6.06656 24.308 6.1169 24.5262 6.21759 24.6521C6.31828 24.7779 6.51127 24.8409 6.79656 24.8409C6.99794 24.8409 7.17834 24.8241 7.33777 24.7905V27.8616C7.23708 27.8951 6.92242 27.958 6.3938 28.0503C5.86518 28.151 5.32817 28.2014 4.78276 28.2014ZM12.2212 28.2014C11.1724 28.2014 10.371 27.958 9.81725 27.4714C9.27185 26.9847 8.89846 26.3176 8.69708 25.4702C8.4957 24.6227 8.39501 23.6619 8.39501 22.5879C8.39501 21.4384 8.50829 20.4986 8.73484 19.7686C8.96139 19.0302 9.34737 18.4261 9.89277 17.9562C10.4466 17.4863 11.2059 17.0877 12.1709 16.7605L14.965 15.8039V13.8657C14.965 12.8504 14.6336 12.3427 13.9707 12.3427C13.3666 12.3427 13.0645 12.7539 13.0645 13.5762V14.7089H8.68449C8.6761 14.6418 8.67191 14.5579 8.67191 14.4572C8.67191 14.3481 8.67191 14.2265 8.67191 14.0922C8.67191 12.2127 9.11243 10.8827 9.99346 10.1024C10.8829 9.31365 12.2883 8.91929 14.2098 8.91929C15.2167 8.91929 16.1188 9.09969 16.9159 9.46049C17.713 9.81291 18.3423 10.3373 18.8038 11.0338C19.2737 11.7302 19.5086 12.5903 19.5086 13.6139V28H15.028V25.7597C14.8098 26.5484 14.449 27.1525 13.9455 27.5721C13.4421 27.9916 12.8673 28.2014 12.2212 28.2014ZM13.9959 24.7024C14.3651 24.7024 14.6168 24.5472 14.7511 24.2367C14.8853 23.9263 14.9524 23.5906 14.9524 23.2298V17.9688C14.3315 18.2205 13.849 18.5394 13.505 18.9253C13.161 19.3029 12.989 19.8609 12.989 20.5993V23.0284C12.989 24.1444 13.3246 24.7024 13.9959 24.7024ZM25.1221 28.2014C23.9054 28.2014 23.0831 27.9455 22.6552 27.4336C22.2357 26.9134 22.0259 26.1205 22.0259 25.0548V13.2867H20.7547V9.85067H22.0259V5.84825H26.4059V9.85067H27.6771V13.2867H26.4059V23.9976C26.4059 24.308 26.4562 24.5262 26.5569 24.6521C26.6576 24.7779 26.8506 24.8409 27.1359 24.8409C27.3373 24.8409 27.5177 24.8241 27.6771 24.7905V27.8616C27.5764 27.8951 27.2618 27.958 26.7331 28.0503C26.2045 28.151 25.6675 28.2014 25.1221 28.2014ZM33.0011 28.2014C31.7844 28.2014 30.9621 27.9455 30.5342 27.4336C30.1146 26.9134 29.9049 26.1205 29.9049 25.0548V13.2867H28.6337V9.85067H29.9049V5.84825H34.2849V9.85067H35.5561V13.2867H34.2849V23.9976C34.2849 24.308 34.3352 24.5262 34.4359 24.6521C34.5366 24.7779 34.7296 24.8409 35.0149 24.8409C35.2163 24.8409 35.3967 24.8241 35.5561 24.7905V27.8616C35.4554 27.8951 35.1407 27.958 34.6121 28.0503C34.0835 28.151 33.5465 28.2014 33.0011 28.2014ZM42.4911 28.2014C38.732 28.2014 36.8525 26.2505 36.8525 22.3488V14.7719C36.8525 12.993 37.3517 11.575 38.3502 10.5177C39.3487 9.4521 40.729 8.91929 42.4911 8.91929C44.2615 8.91929 45.646 9.4521 46.6445 10.5177C47.643 11.575 48.1423 12.993 48.1423 14.7719V22.3488C48.1423 26.2505 46.2586 28.2014 42.4911 28.2014ZM42.4911 24.7276C42.8687 24.7276 43.1372 24.5933 43.2966 24.3248C43.4644 24.0479 43.5483 23.6997 43.5483 23.2802V14.0545C43.5483 12.9553 43.1959 12.4057 42.4911 12.4057C41.7863 12.4057 41.4338 12.9553 41.4338 14.0545V23.2802C41.4338 23.6997 41.5136 24.0479 41.673 24.3248C41.8408 24.5933 42.1135 24.7276 42.4911 24.7276ZM55.3039 28.2014C51.5448 28.2014 49.6652 26.2505 49.6652 22.3488V14.7719C49.6652 12.993 50.1645 11.575 51.163 10.5177C52.1615 9.4521 53.5418 8.91929 55.3039 8.91929C57.0743 8.91929 58.4588 9.4521 59.4573 10.5177C60.4558 11.575 60.9551 12.993 60.9551 14.7719V22.3488C60.9551 26.2505 59.0713 28.2014 55.3039 28.2014ZM55.3039 24.7276C55.6814 24.7276 55.95 24.5933 56.1094 24.3248C56.2772 24.0479 56.3611 23.6997 56.3611 23.2802V14.0545C56.3611 12.9553 56.0087 12.4057 55.3039 12.4057C54.599 12.4057 54.2466 12.9553 54.2466 14.0545V23.2802C54.2466 23.6997 54.3263 24.0479 54.4858 24.3248C54.6536 24.5933 54.9263 24.7276 55.3039 24.7276ZM62.629 28V5.84825H67.2104V28H62.629ZM72.4589 28.2014C71.41 28.2014 70.6087 27.958 70.0549 27.4714C69.5095 26.9847 69.1361 26.3176 68.9347 25.4702C68.7334 24.6227 68.6327 23.6619 68.6327 22.5879C68.6327 21.4384 68.7459 20.4986 68.9725 19.7686C69.1991 19.0302 69.585 18.4261 70.1304 17.9562C70.6842 17.4863 71.4436 17.0877 72.4085 16.7605L75.2027 15.8039V13.8657C75.2027 12.8504 74.8712 12.3427 74.2084 12.3427C73.6042 12.3427 73.3022 12.7539 73.3022 13.5762V14.7089H68.9222C68.9138 14.6418 68.9096 14.5579 68.9096 14.4572C68.9096 14.3481 68.9096 14.2265 68.9096 14.0922C68.9096 12.2127 69.3501 10.8827 70.2311 10.1024C71.1206 9.31365 72.526 8.91929 74.4475 8.91929C75.4544 8.91929 76.3564 9.09969 77.1535 9.46049C77.9507 9.81291 78.58 10.3373 79.0415 11.0338C79.5114 11.7302 79.7463 12.5903 79.7463 13.6139V28H75.2656V25.7597C75.0475 26.5484 74.6866 27.1525 74.1832 27.5721C73.6797 27.9916 73.105 28.2014 72.4589 28.2014ZM74.2335 24.7024C74.6027 24.7024 74.8545 24.5472 74.9887 24.2367C75.123 23.9263 75.1901 23.5906 75.1901 23.2298V17.9688C74.5692 18.2205 74.0867 18.5394 73.7427 18.9253C73.3987 19.3029 73.2266 19.8609 73.2266 20.5993V23.0284C73.2266 24.1444 73.5623 24.7024 74.2335 24.7024ZM77.4304 8.25222L71.452 7.06911V2.70169L77.4304 5.44549V8.25222Z" fill="white"/>
<path d="M76.8643 4.0332V6.83984L70.8857 5.65625V1.28906L76.8643 4.0332Z" fill="#AE0E0E"/>
</svg>
