<svg width="146" height="60" viewBox="0 0 146 60" fill="none" xmlns="http://www.w3.org/2000/svg">
<path d="M8.58084 50.3613C6.398 50.3613 4.92269 49.9021 4.15493 48.9838C3.40223 48.0505 3.02588 46.6279 3.02588 44.716V23.6026H0.745178V17.438H3.02588V10.2571H10.8841V17.438H13.1648V23.6026H10.8841V42.8192C10.8841 43.3762 10.9744 43.7676 11.1551 43.9934C11.3357 44.2192 11.682 44.3321 12.1938 44.3321C12.5551 44.3321 12.8788 44.302 13.1648 44.2418V49.7516C12.9842 49.8118 12.4196 49.9247 11.4712 50.0903C10.5228 50.271 9.55936 50.3613 8.58084 50.3613ZM21.9263 50.3613C20.0445 50.3613 18.6069 49.9247 17.6133 49.0516C16.6348 48.1785 15.9649 46.9817 15.6036 45.4612C15.2423 43.9407 15.0616 42.217 15.0616 40.2901C15.0616 38.2277 15.2649 36.5416 15.6713 35.2319C16.0778 33.9072 16.7703 32.8233 17.7488 31.9802C18.7424 31.1372 20.1048 30.4221 21.836 29.835L26.849 28.1189V24.6414C26.849 22.8198 26.2544 21.909 25.0651 21.909C23.9812 21.909 23.4393 22.6467 23.4393 24.122V26.1543H15.581C15.566 26.0339 15.5584 25.8833 15.5584 25.7027C15.5584 25.507 15.5584 25.2887 15.5584 25.0478C15.5584 21.6757 16.3488 19.2896 17.9294 17.8896C19.5252 16.4745 22.0467 15.767 25.4941 15.767C27.3006 15.767 28.9189 16.0906 30.3491 16.7379C31.7792 17.3702 32.9083 18.3111 33.7363 19.5606C34.5793 20.8101 35.0008 22.3531 35.0008 24.1897V50H26.9619V45.9806C26.5705 47.3956 25.9232 48.4795 25.0199 49.2322C24.1167 49.9849 23.0855 50.3613 21.9263 50.3613ZM25.1103 44.0837C25.7726 44.0837 26.2243 43.8052 26.4651 43.2482C26.706 42.6912 26.8264 42.0891 26.8264 41.4417V32.0028C25.7124 32.4544 24.8468 33.0265 24.2296 33.719C23.6124 34.3964 23.3038 35.3975 23.3038 36.7223V41.0804C23.3038 43.0826 23.9059 44.0837 25.1103 44.0837ZM45.072 50.3613C42.8892 50.3613 41.4139 49.9021 40.6461 48.9838C39.8934 48.0505 39.517 46.6279 39.517 44.716V23.6026H37.2363V17.438H39.517V10.2571H47.3753V17.438H49.656V23.6026H47.3753V42.8192C47.3753 43.3762 47.4656 43.7676 47.6463 43.9934C47.8269 44.2192 48.1732 44.3321 48.685 44.3321C49.0463 44.3321 49.37 44.302 49.656 44.2418V49.7516C49.4753 49.8118 48.9108 49.9247 47.9624 50.0903C47.014 50.271 46.0505 50.3613 45.072 50.3613ZM59.2078 50.3613C57.025 50.3613 55.5497 49.9021 54.7819 48.9838C54.0292 48.0505 53.6529 46.6279 53.6529 44.716V23.6026H51.3722V17.438H53.6529V10.2571H61.5111V17.438H63.7918V23.6026H61.5111V42.8192C61.5111 43.3762 61.6014 43.7676 61.7821 43.9934C61.9627 44.2192 62.309 44.3321 62.8208 44.3321C63.1821 44.3321 63.5058 44.302 63.7918 44.2418V49.7516C63.6111 49.8118 63.0466 49.9247 62.0982 50.0903C61.1498 50.271 60.1863 50.3613 59.2078 50.3613ZM76.234 50.3613C69.4898 50.3613 66.1177 46.8612 66.1177 39.8611V26.2672C66.1177 23.0757 67.0134 20.5316 68.8048 18.6348C70.5963 16.7229 73.0727 15.767 76.234 15.767C79.4104 15.767 81.8944 16.7229 83.6858 18.6348C85.4772 20.5316 86.373 23.0757 86.373 26.2672V39.8611C86.373 46.8612 82.9933 50.3613 76.234 50.3613ZM76.234 44.1289C76.9115 44.1289 77.3932 43.888 77.6792 43.4063C77.9803 42.9095 78.1308 42.2848 78.1308 41.5321V24.9801C78.1308 23.008 77.4986 22.0219 76.234 22.0219C74.9695 22.0219 74.3372 23.008 74.3372 24.9801V41.5321C74.3372 42.2848 74.4802 42.9095 74.7662 43.4063C75.0673 43.888 75.5566 44.1289 76.234 44.1289ZM99.2216 50.3613C92.4774 50.3613 89.1053 46.8612 89.1053 39.8611V26.2672C89.1053 23.0757 90.001 20.5316 91.7924 18.6348C93.5839 16.7229 96.0603 15.767 99.2216 15.767C102.398 15.767 104.882 16.7229 106.673 18.6348C108.465 20.5316 109.361 23.0757 109.361 26.2672V39.8611C109.361 46.8612 105.981 50.3613 99.2216 50.3613ZM99.2216 44.1289C99.8991 44.1289 100.381 43.888 100.667 43.4063C100.968 42.9095 101.118 42.2848 101.118 41.5321V24.9801C101.118 23.008 100.486 22.0219 99.2216 22.0219C97.9571 22.0219 97.3248 23.008 97.3248 24.9801V41.5321C97.3248 42.2848 97.4678 42.9095 97.7539 43.4063C98.055 43.888 98.5442 44.1289 99.2216 44.1289ZM112.364 50V10.2571H120.583V50H112.364ZM130 50.3613C128.118 50.3613 126.68 49.9247 125.687 49.0516C124.708 48.1785 124.038 46.9817 123.677 45.4612C123.316 43.9407 123.135 42.217 123.135 40.2901C123.135 38.2277 123.338 36.5416 123.745 35.2319C124.151 33.9072 124.844 32.8233 125.822 31.9802C126.816 31.1372 128.178 30.4221 129.909 29.835L134.922 28.1189V24.6414C134.922 22.8198 134.328 21.909 133.139 21.909C132.055 21.909 131.513 22.6467 131.513 24.122V26.1543H123.654C123.639 26.0339 123.632 25.8833 123.632 25.7027C123.632 25.507 123.632 25.2887 123.632 25.0478C123.632 21.6757 124.422 19.2896 126.003 17.8896C127.599 16.4745 130.12 15.767 133.568 15.767C135.374 15.767 136.992 16.0906 138.423 16.7379C139.853 17.3702 140.982 18.3111 141.81 19.5606C142.653 20.8101 143.074 22.3531 143.074 24.1897V50H135.035V45.9806C134.644 47.3956 133.997 48.4795 133.093 49.2322C132.19 49.9849 131.159 50.3613 130 50.3613ZM133.184 44.0837C133.846 44.0837 134.298 43.8052 134.539 43.2482C134.779 42.6912 134.9 42.0891 134.9 41.4417V32.0028C133.786 32.4544 132.92 33.0265 132.303 33.719C131.686 34.3964 131.377 35.3975 131.377 36.7223V41.0804C131.377 43.0826 131.979 44.0837 133.184 44.0837ZM138.919 14.5702L128.193 12.4475V4.61186L138.919 9.53455V14.5702Z" fill="white"/>
<path d="M137.902 7.23535V12.2715L127.177 10.1484V2.3125L137.902 7.23535Z" fill="#AE0E0E"/>
</svg>
