<svg width="80" height="27" viewBox="0 0 80 27" fill="none" xmlns="http://www.w3.org/2000/svg">
<path d="M4.78276 26.2014C3.5661 26.2014 2.7438 25.9455 2.31587 25.4336C1.89632 24.9134 1.68655 24.1205 1.68655 23.0548V11.2867H0.415345V7.85067H1.68655V3.84825H6.06656V7.85067H7.33777V11.2867H6.06656V21.9976C6.06656 22.308 6.1169 22.5262 6.21759 22.6521C6.31828 22.7779 6.51127 22.8409 6.79656 22.8409C6.99794 22.8409 7.17834 22.8241 7.33777 22.7905V25.8616C7.23708 25.8951 6.92242 25.958 6.3938 26.0503C5.86518 26.151 5.32817 26.2014 4.78276 26.2014ZM12.2212 26.2014C11.1724 26.2014 10.371 25.958 9.81725 25.4714C9.27185 24.9847 8.89846 24.3176 8.69708 23.4702C8.4957 22.6227 8.39501 21.6619 8.39501 20.5879C8.39501 19.4384 8.50829 18.4986 8.73484 17.7686C8.96139 17.0302 9.34737 16.4261 9.89277 15.9562C10.4466 15.4863 11.2059 15.0877 12.1709 14.7605L14.965 13.8039V11.8657C14.965 10.8504 14.6336 10.3427 13.9707 10.3427C13.3666 10.3427 13.0645 10.7539 13.0645 11.5762V12.7089H8.68449C8.6761 12.6418 8.67191 12.5579 8.67191 12.4572C8.67191 12.3481 8.67191 12.2265 8.67191 12.0922C8.67191 10.2127 9.11243 8.88274 9.99346 8.10239C10.8829 7.31365 12.2883 6.91929 14.2098 6.91929C15.2167 6.91929 16.1188 7.09969 16.9159 7.46049C17.713 7.81291 18.3423 8.33733 18.8038 9.03377C19.2737 9.73021 19.5086 10.5903 19.5086 11.6139V26H15.028V23.7597C14.8098 24.5484 14.449 25.1525 13.9455 25.5721C13.4421 25.9916 12.8673 26.2014 12.2212 26.2014ZM13.9959 22.7024C14.3651 22.7024 14.6168 22.5472 14.7511 22.2367C14.8853 21.9263 14.9524 21.5906 14.9524 21.2298V15.9688C14.3315 16.2205 13.849 16.5394 13.505 16.9253C13.161 17.3029 12.989 17.8609 12.989 18.5993V21.0284C12.989 22.1444 13.3246 22.7024 13.9959 22.7024ZM25.1221 26.2014C23.9054 26.2014 23.0831 25.9455 22.6552 25.4336C22.2357 24.9134 22.0259 24.1205 22.0259 23.0548V11.2867H20.7547V7.85067H22.0259V3.84825H26.4059V7.85067H27.6771V11.2867H26.4059V21.9976C26.4059 22.308 26.4562 22.5262 26.5569 22.6521C26.6576 22.7779 26.8506 22.8409 27.1359 22.8409C27.3373 22.8409 27.5177 22.8241 27.6771 22.7905V25.8616C27.5764 25.8951 27.2618 25.958 26.7331 26.0503C26.2045 26.151 25.6675 26.2014 25.1221 26.2014ZM33.0011 26.2014C31.7844 26.2014 30.9621 25.9455 30.5342 25.4336C30.1146 24.9134 29.9049 24.1205 29.9049 23.0548V11.2867H28.6337V7.85067H29.9049V3.84825H34.2849V7.85067H35.5561V11.2867H34.2849V21.9976C34.2849 22.308 34.3352 22.5262 34.4359 22.6521C34.5366 22.7779 34.7296 22.8409 35.0149 22.8409C35.2163 22.8409 35.3967 22.8241 35.5561 22.7905V25.8616C35.4554 25.8951 35.1407 25.958 34.6121 26.0503C34.0835 26.151 33.5465 26.2014 33.0011 26.2014ZM42.4911 26.2014C38.732 26.2014 36.8525 24.2505 36.8525 20.3488V12.7719C36.8525 10.993 37.3517 9.57498 38.3502 8.51774C39.3487 7.4521 40.729 6.91929 42.4911 6.91929C44.2615 6.91929 45.646 7.4521 46.6445 8.51774C47.643 9.57498 48.1423 10.993 48.1423 12.7719V20.3488C48.1423 24.2505 46.2586 26.2014 42.4911 26.2014ZM42.4911 22.7276C42.8687 22.7276 43.1372 22.5933 43.2966 22.3248C43.4644 22.0479 43.5483 21.6997 43.5483 21.2802V12.0545C43.5483 10.9553 43.1959 10.4057 42.4911 10.4057C41.7863 10.4057 41.4338 10.9553 41.4338 12.0545V21.2802C41.4338 21.6997 41.5136 22.0479 41.673 22.3248C41.8408 22.5933 42.1135 22.7276 42.4911 22.7276ZM55.3039 26.2014C51.5448 26.2014 49.6652 24.2505 49.6652 20.3488V12.7719C49.6652 10.993 50.1645 9.57498 51.163 8.51774C52.1615 7.4521 53.5418 6.91929 55.3039 6.91929C57.0743 6.91929 58.4588 7.4521 59.4573 8.51774C60.4558 9.57498 60.9551 10.993 60.9551 12.7719V20.3488C60.9551 24.2505 59.0713 26.2014 55.3039 26.2014ZM55.3039 22.7276C55.6814 22.7276 55.95 22.5933 56.1094 22.3248C56.2772 22.0479 56.3611 21.6997 56.3611 21.2802V12.0545C56.3611 10.9553 56.0087 10.4057 55.3039 10.4057C54.599 10.4057 54.2466 10.9553 54.2466 12.0545V21.2802C54.2466 21.6997 54.3263 22.0479 54.4858 22.3248C54.6536 22.5933 54.9263 22.7276 55.3039 22.7276ZM62.629 26V3.84825H67.2104V26H62.629ZM72.4589 26.2014C71.41 26.2014 70.6087 25.958 70.0549 25.4714C69.5095 24.9847 69.1361 24.3176 68.9347 23.4702C68.7334 22.6227 68.6327 21.6619 68.6327 20.5879C68.6327 19.4384 68.7459 18.4986 68.9725 17.7686C69.1991 17.0302 69.585 16.4261 70.1304 15.9562C70.6842 15.4863 71.4436 15.0877 72.4085 14.7605L75.2027 13.8039V11.8657C75.2027 10.8504 74.8712 10.3427 74.2084 10.3427C73.6042 10.3427 73.3022 10.7539 73.3022 11.5762V12.7089H68.9222C68.9138 12.6418 68.9096 12.5579 68.9096 12.4572C68.9096 12.3481 68.9096 12.2265 68.9096 12.0922C68.9096 10.2127 69.3501 8.88274 70.2311 8.10239C71.1206 7.31365 72.526 6.91929 74.4475 6.91929C75.4544 6.91929 76.3564 7.09969 77.1535 7.46049C77.9507 7.81291 78.58 8.33733 79.0415 9.03377C79.5114 9.73021 79.7463 10.5903 79.7463 11.6139V26H75.2656V23.7597C75.0475 24.5484 74.6866 25.1525 74.1832 25.5721C73.6797 25.9916 73.105 26.2014 72.4589 26.2014ZM74.2335 22.7024C74.6027 22.7024 74.8545 22.5472 74.9887 22.2367C75.123 21.9263 75.1901 21.5906 75.1901 21.2298V15.9688C74.5692 16.2205 74.0867 16.5394 73.7427 16.9253C73.3987 17.3029 73.2266 17.8609 73.2266 18.5993V21.0284C73.2266 22.1444 73.5623 22.7024 74.2335 22.7024ZM77.4304 6.25222L71.452 5.06911V0.701692L77.4304 3.44549V6.25222Z" fill="white"/>
</svg>
