<svg width="103" height="67" viewBox="0 0 103 67" fill="none" xmlns="http://www.w3.org/2000/svg">
<path d="M58.0662 62.4676V45.4901H61.3321V47.0856H61.4069C62.3542 45.7892 63.609 45.1411 65.1713 45.1411C66.85 45.1411 68.1962 45.7643 69.21 47.0108C70.2239 48.2573 70.7308 49.8861 70.7308 51.8972C70.7308 53.9581 70.2239 55.6035 69.21 56.8333C68.1962 58.0466 66.8583 58.6533 65.1963 58.6533C63.5343 58.6533 62.3044 58.0466 61.5066 56.8333H61.4567V62.4676H58.0662ZM64.4733 55.8361C65.3375 55.8361 66.019 55.4954 66.5176 54.814C67.0328 54.1326 67.2904 53.1935 67.2904 51.9969C67.2904 50.7171 67.0494 49.7116 66.5674 48.9803C66.0855 48.249 65.3459 47.8834 64.3486 47.8834C63.3348 47.8834 62.5869 48.2657 62.1049 49.0302C61.6229 49.7781 61.3819 50.767 61.3819 51.9969C61.3819 53.1769 61.6479 54.1159 62.1797 54.814C62.7116 55.4954 63.4761 55.8361 64.4733 55.8361ZM75.5745 45.4901V47.5344H75.6492C76.0481 46.7865 76.4886 46.238 76.9706 45.889C77.4525 45.5233 78.0592 45.3405 78.7905 45.3405C79.1395 45.3405 79.4054 45.3737 79.5882 45.4402V48.4069H79.5134C78.3666 48.2906 77.4442 48.5399 76.7462 49.1548C76.0481 49.7698 75.6991 50.7337 75.6991 52.0467V58.2793H72.3086V45.4901H75.5745ZM91.5532 56.7336C90.3067 58.0134 88.7028 58.6533 86.7416 58.6533C84.7805 58.6533 83.1766 58.0134 81.9301 56.7336C80.6836 55.4373 80.0603 53.8251 80.0603 51.8972C80.0603 49.9692 80.6836 48.3654 81.9301 47.0856C83.1766 45.7892 84.7805 45.1411 86.7416 45.1411C88.7028 45.1411 90.3067 45.7892 91.5532 47.0856C92.7997 48.3654 93.4229 49.9692 93.4229 51.8972C93.4229 53.8251 92.7997 55.4373 91.5532 56.7336ZM86.7416 56.0605C87.7555 56.0605 88.5449 55.6866 89.11 54.9386C89.6917 54.1741 89.9826 53.1603 89.9826 51.8972C89.9826 50.634 89.6917 49.6202 89.11 48.8557C88.5449 48.0911 87.7555 47.7089 86.7416 47.7089C85.7112 47.7089 84.9134 48.0911 84.3483 48.8557C83.7833 49.6036 83.5007 50.6174 83.5007 51.8972C83.5007 53.1603 83.7833 54.1741 84.3483 54.9386C84.9134 55.6866 85.7112 56.0605 86.7416 56.0605ZM94.3126 58.2793V54.6644H97.9525V58.2793H94.3126Z" fill="#AE0E0E"/>
<path d="M5.87144 34.2472C4.37783 34.2472 3.36835 33.933 2.84301 33.3047C2.32798 32.666 2.07046 31.6926 2.07046 30.3844V15.9376H0.509888V11.7194H2.07046V6.80595H7.44746V11.7194H9.00803V15.9376H7.44746V29.0865C7.44746 29.4677 7.50927 29.7355 7.63288 29.89C7.75648 30.0445 7.9934 30.1218 8.34363 30.1218C8.59085 30.1218 8.81231 30.1012 9.00803 30.06V33.83C8.88442 33.8712 8.49814 33.9485 7.84919 34.0618C7.20024 34.1854 6.54099 34.2472 5.87144 34.2472ZM15.0031 34.2472C13.7155 34.2472 12.7318 33.9485 12.0519 33.3511C11.3824 32.7536 10.924 31.9347 10.6768 30.8943C10.4295 29.8539 10.3059 28.6745 10.3059 27.356C10.3059 25.9448 10.445 24.7911 10.7231 23.8949C11.0012 22.9885 11.4751 22.2468 12.1446 21.67C12.8245 21.0931 13.7567 20.6038 14.9413 20.2021L18.3714 19.0278V16.6483C18.3714 15.4019 17.9646 14.7788 17.1508 14.7788C16.4091 14.7788 16.0383 15.2835 16.0383 16.293V17.6836H10.6613C10.651 17.6012 10.6459 17.4982 10.6459 17.3745C10.6459 17.2406 10.6459 17.0913 10.6459 16.9265C10.6459 14.6191 11.1866 12.9864 12.2682 12.0284C13.3601 11.0602 15.0855 10.576 17.4444 10.576C18.6805 10.576 19.7878 10.7975 20.7664 11.2404C21.7449 11.6731 22.5175 12.3169 23.084 13.1718C23.6609 14.0268 23.9493 15.0826 23.9493 16.3393V34H18.4487V31.2497C18.1809 32.218 17.7379 32.9596 17.1199 33.4747C16.5018 33.9897 15.7962 34.2472 15.0031 34.2472ZM17.1817 29.9518C17.6349 29.9518 17.944 29.7612 18.1088 29.3801C18.2736 28.999 18.356 28.5869 18.356 28.144V21.6854C17.5937 21.9944 17.0014 22.3859 16.5791 22.8597C16.1568 23.3232 15.9456 24.0082 15.9456 24.9147V27.8968C15.9456 29.2668 16.3576 29.9518 17.1817 29.9518ZM30.8405 34.2472C29.3469 34.2472 28.3374 33.933 27.8121 33.3047C27.2971 32.666 27.0395 31.6926 27.0395 30.3844V15.9376H25.479V11.7194H27.0395V6.80595H32.4165V11.7194H33.9771V15.9376H32.4165V29.0865C32.4165 29.4677 32.4783 29.7355 32.602 29.89C32.7256 30.0445 32.9625 30.1218 33.3127 30.1218C33.5599 30.1218 33.7814 30.1012 33.9771 30.06V33.83C33.8535 33.8712 33.4672 33.9485 32.8183 34.0618C32.1693 34.1854 31.5101 34.2472 30.8405 34.2472ZM40.513 34.2472C39.0193 34.2472 38.0099 33.933 37.4845 33.3047C36.9695 32.666 36.712 31.6926 36.712 30.3844V15.9376H35.1514V11.7194H36.712V6.80595H42.089V11.7194H43.6495V15.9376H42.089V29.0865C42.089 29.4677 42.1508 29.7355 42.2744 29.89C42.398 30.0445 42.6349 30.1218 42.9851 30.1218C43.2324 30.1218 43.4538 30.1012 43.6495 30.06V33.83C43.5259 33.8712 43.1397 33.9485 42.4907 34.0618C41.8418 34.1854 41.1825 34.2472 40.513 34.2472ZM52.1631 34.2472C47.5484 34.2472 45.241 31.8523 45.241 27.0624V17.7608C45.241 15.5771 45.8539 13.8362 47.0797 12.5383C48.3055 11.2301 50 10.576 52.1631 10.576C54.3366 10.576 56.0362 11.2301 57.262 12.5383C58.4878 13.8362 59.1007 15.5771 59.1007 17.7608V27.0624C59.1007 31.8523 56.7882 34.2472 52.1631 34.2472ZM52.1631 29.9827C52.6267 29.9827 52.9563 29.8179 53.152 29.4883C53.358 29.1483 53.461 28.7209 53.461 28.2058V16.8801C53.461 15.5307 53.0284 14.856 52.1631 14.856C51.2979 14.856 50.8652 15.5307 50.8652 16.8801V28.2058C50.8652 28.7209 50.9631 29.1483 51.1588 29.4883C51.3648 29.8179 51.6996 29.9827 52.1631 29.9827ZM67.8924 34.2472C63.2777 34.2472 60.9703 31.8523 60.9703 27.0624V17.7608C60.9703 15.5771 61.5832 13.8362 62.809 12.5383C64.0348 11.2301 65.7293 10.576 67.8924 10.576C70.0659 10.576 71.7655 11.2301 72.9913 12.5383C74.2171 13.8362 74.83 15.5771 74.83 17.7608V27.0624C74.83 31.8523 72.5175 34.2472 67.8924 34.2472ZM67.8924 29.9827C68.356 29.9827 68.6856 29.8179 68.8813 29.4883C69.0873 29.1483 69.1903 28.7209 69.1903 28.2058V16.8801C69.1903 15.5307 68.7577 14.856 67.8924 14.856C67.0272 14.856 66.5945 15.5307 66.5945 16.8801V28.2058C66.5945 28.7209 66.6924 29.1483 66.8881 29.4883C67.0941 29.8179 67.4289 29.9827 67.8924 29.9827ZM76.885 34V6.80595H82.5092V34H76.885ZM88.9524 34.2472C87.6648 34.2472 86.681 33.9485 86.0012 33.3511C85.3316 32.7536 84.8732 31.9347 84.626 30.8943C84.3788 29.8539 84.2552 28.6745 84.2552 27.356C84.2552 25.9448 84.3943 24.7911 84.6724 23.8949C84.9505 22.9885 85.4243 22.2468 86.0939 21.67C86.7737 21.0931 87.706 20.6038 88.8906 20.2021L92.3207 19.0278V16.6483C92.3207 15.4019 91.9138 14.7788 91.1001 14.7788C90.3584 14.7788 89.9876 15.2835 89.9876 16.293V17.6836H84.6106C84.6003 17.6012 84.5951 17.4982 84.5951 17.3745C84.5951 17.2406 84.5951 17.0913 84.5951 16.9265C84.5951 14.6191 85.1359 12.9864 86.2175 12.0284C87.3094 11.0602 89.0348 10.576 91.3936 10.576C92.6297 10.576 93.7371 10.7975 94.7156 11.2404C95.6942 11.6731 96.4668 12.3169 97.0333 13.1718C97.6102 14.0268 97.8986 15.0826 97.8986 16.3393V34H92.398V31.2497C92.1301 32.218 91.6872 32.9596 91.0692 33.4747C90.4511 33.9897 89.7455 34.2472 88.9524 34.2472ZM91.131 29.9518C91.5842 29.9518 91.8932 29.7612 92.058 29.3801C92.2229 28.999 92.3053 28.5869 92.3053 28.144V21.6854C91.543 21.9944 90.9507 22.3859 90.5284 22.8597C90.106 23.3232 89.8949 24.0082 89.8949 24.9147V27.8968C89.8949 29.2668 90.3069 29.9518 91.131 29.9518ZM95.0556 9.75712L87.7163 8.30471V2.94316L95.0556 6.31151V9.75712Z" fill="black"/>
<path d="M94.3613 4.9502V8.39551L87.0215 6.94336V1.58203L94.3613 4.9502Z" fill="#AE0E0E"/>
</svg>
