<svg width="1024" height="1024" viewBox="0 0 1024 1024" fill="none" xmlns="http://www.w3.org/2000/svg">
  <rect width="1024" height="1024" fill="#000000"/>
  <g transform="translate(256,256) scale(32)">
    <path d="M4.78276 26.2014C3.5661 26.2014 2.7438 25.9455 2.31587 25.4336C1.89632 24.9134 1.68655 24.1205 1.68655 23.0548V11.2867H0.415345V7.85067H1.68655V3.84825H6.06656V7.85067H7.33777V11.2867H6.06656V21.9976C6.06656 22.308 6.1169 22.5262 6.21759 22.6521C6.31828 22.7779 6.51127 22.8409 6.79656 22.8409C6.99794 22.8409 7.17834 22.8241 7.33777 22.7905V25.8616C7.23708 25.8951 6.92242 25.958 6.3938 26.0503C5.86518 26.151 5.32817 26.2014 4.78276 26.2014ZM12.2212 26.2014C11.1724 26.2014 10.371 25.958 9.81725 25.4714C9.27185 24.9847 8.89846 24.3176 8.69708 23.4702C8.4957 22.6227 8.39501 21.6619 8.39501 20.5879C8.39501 19.4384 8.50829 18.4986 8.73484 17.7686C8.96139 17.0302 9.34737 16.4261 9.89277 15.9562C10.4466 15.4863 11.2059 15.0877 12.1709 14.7605L14.965 13.8039V11.8657C14.965 10.8504 14.6336 10.3427 13.9707 10.3427C13.3666 10.3427 13.0645 10.7539 13.0645 11.5762V12.7089H8.68449C8.6761 12.6418 8.67191 12.5579 8.67191 12.4572C8.67191 12.3481 8.67191 12.2265 8.67191 12.0922C8.67191 10.2127 9.11243 8.88274 9.99346 8.10239C10.8829 7.31365 12.2883 6.91929 14.2098 6.91929C15.2167 6.91929 16.1188 7.09969 16.9159 7.46049C17.713 7.81291 18.3423 8.33733 18.8038 9.03377C19.2737 9.73021 19.5086 10.5903 19.5086 11.6139V26H15.028V23.7597C14.8098 24.5484 14.449 25.1525 13.9455 25.5721C13.4421 25.9916 12.8673 26.2014 12.2212 26.2014ZM13.9959 22.7024C14.3651 22.7024 14.6168 22.5472 14.7511 22.2367C14.8853 21.9263 14.9524 21.5906 14.9524 21.2298V15.9688C14.3315 16.2205 13.849 16.5394 13.505 16.9253C13.161 17.3029 12.989 17.8609 12.989 18.5993V21.0284C12.989 22.1444 13.3246 22.7024 13.9959 22.7024Z" fill="white"/>
  </g>
</svg>