<svg width="167" height="47" viewBox="0 0 167 47" fill="none" xmlns="http://www.w3.org/2000/svg">
<path d="M9.14678 46.8146C6.59868 46.8146 4.87652 46.2786 3.9803 45.2067C3.10164 44.1172 2.66232 42.4565 2.66232 40.2247V15.5785H0V8.38235H2.66232V0H11.8355V8.38235H14.4978V15.5785H11.8355V38.0105C11.8355 38.6607 11.9409 39.1176 12.1518 39.3812C12.3626 39.6448 12.7668 39.7766 13.3643 39.7766C13.7861 39.7766 14.1639 39.7415 14.4978 39.6712V46.1029C14.2869 46.1732 13.6279 46.305 12.5208 46.4983C11.4137 46.7092 10.289 46.8146 9.14678 46.8146Z" fill="white"/>
<path d="M24.7253 46.8146C22.5287 46.8146 20.8504 46.305 19.6906 45.2858C18.5484 44.2665 17.7664 42.8695 17.3446 41.0946C16.9229 39.3197 16.712 37.3076 16.712 35.0582C16.712 32.6507 16.9492 30.6826 17.4237 29.1537C17.8982 27.6073 18.7065 26.342 19.8488 25.3579C21.0086 24.3738 22.599 23.5391 24.6199 22.8538L30.4717 20.8504V16.7911C30.4717 14.6647 29.7775 13.6015 28.3893 13.6015C27.124 13.6015 26.4914 14.4626 26.4914 16.1848V18.5571H17.3182C17.3007 18.4166 17.2919 18.2408 17.2919 18.03C17.2919 17.8015 17.2919 17.5467 17.2919 17.2655C17.2919 13.3292 18.2145 10.5438 20.0596 8.90954C21.9224 7.25767 24.8659 6.43174 28.8901 6.43174C30.9989 6.43174 32.888 6.80956 34.5574 7.5652C36.2269 8.30327 37.5448 9.40158 38.5114 10.8601C39.4954 12.3187 39.9875 14.1199 39.9875 16.2639V46.3929H30.6035V41.7009C30.1466 43.3527 29.3909 44.618 28.3366 45.4966C27.2822 46.3753 26.0784 46.8146 24.7253 46.8146ZM28.442 39.4867C29.2152 39.4867 29.7424 39.1616 30.0236 38.5114C30.3047 37.8611 30.4453 37.1582 30.4453 36.4026V25.3843C29.1449 25.9115 28.1345 26.5792 27.414 27.3876C26.6935 28.1784 26.3332 29.347 26.3332 30.8934V35.9808C26.3332 38.318 27.0361 39.4867 28.442 39.4867Z" fill="white"/>
<path d="M51.7439 46.8146C49.1958 46.8146 47.4736 46.2786 46.5774 45.2067C45.6987 44.1172 45.2594 42.4565 45.2594 40.2247V15.5785H42.5971V8.38235H45.2594V0H54.4325V8.38235H57.0949V15.5785H54.4325V38.0105C54.4325 38.6607 54.538 39.1176 54.7489 39.3812C54.9597 39.6448 55.3639 39.7766 55.9614 39.7766C56.3832 39.7766 56.761 39.7415 57.0949 39.6712V46.1029C56.884 46.1732 56.225 46.305 55.1179 46.4983C54.0108 46.7092 52.8861 46.8146 51.7439 46.8146Z" fill="white"/>
<path d="M68.245 46.8146C65.6969 46.8146 63.9747 46.2786 63.0785 45.2067C62.1998 44.1172 61.7605 42.4565 61.7605 40.2247V15.5785H59.0982V8.38235H61.7605V0H70.9336V8.38235H73.596V15.5785H70.9336V38.0105C70.9336 38.6607 71.0391 39.1176 71.25 39.3812C71.4608 39.6448 71.865 39.7766 72.4625 39.7766C72.8843 39.7766 73.2621 39.7415 73.596 39.6712V46.1029C73.3851 46.1732 72.7261 46.305 71.619 46.4983C70.5119 46.7092 69.3872 46.8146 68.245 46.8146Z" fill="white"/>
<path d="M88.1201 46.8146C80.2474 46.8146 76.311 42.7289 76.311 34.5574V18.6889C76.311 14.9635 77.3566 11.9936 79.4478 9.77941C81.539 7.54763 84.4298 6.43174 88.1201 6.43174C91.828 6.43174 94.7276 7.54763 96.8188 9.77941C98.9099 11.9936 99.9555 14.9635 99.9555 18.6889V34.5574C99.9555 42.7289 96.0104 46.8146 88.1201 46.8146ZM88.1201 39.5394C88.9109 39.5394 89.4732 39.2582 89.8071 38.6959C90.1586 38.116 90.3343 37.3867 90.3343 36.508V17.1864C90.3343 14.8844 89.5962 13.7333 88.1201 13.7333C86.644 13.7333 85.9059 14.8844 85.9059 17.1864V36.508C85.9059 37.3867 86.0728 38.116 86.4067 38.6959C86.7582 39.2582 87.3293 39.5394 88.1201 39.5394Z" fill="white"/>
<path d="M114.954 46.8146C107.081 46.8146 103.145 42.7289 103.145 34.5574V18.6889C103.145 14.9635 104.191 11.9936 106.282 9.77941C108.373 7.54763 111.264 6.43174 114.954 6.43174C118.662 6.43174 121.562 7.54763 123.653 9.77941C125.744 11.9936 126.79 14.9635 126.79 18.6889V34.5574C126.79 42.7289 122.844 46.8146 114.954 46.8146ZM114.954 39.5394C115.745 39.5394 116.307 39.2582 116.641 38.6959C116.993 38.116 117.168 37.3867 117.168 36.508V17.1864C117.168 14.8844 116.43 13.7333 114.954 13.7333C113.478 13.7333 112.74 14.8844 112.74 17.1864V36.508C112.74 37.3867 112.907 38.116 113.241 38.6959C113.592 39.2582 114.163 39.5394 114.954 39.5394Z" fill="white"/>
<path d="M130.295 46.3929V0H139.89V46.3929H130.295Z" fill="#AE0E0E"/>
<path d="M150.882 46.8146C148.686 46.8146 147.007 46.305 145.848 45.2858C144.705 44.2665 143.923 42.8695 143.502 41.0946C143.08 39.3197 142.869 37.3076 142.869 35.0582C142.869 32.6507 143.106 30.6826 143.581 29.1537C144.055 27.6073 144.864 26.342 146.006 25.3579C147.166 24.3738 148.756 23.5391 150.777 22.8538L156.629 20.8504V16.7911C156.629 14.6647 155.935 13.6015 154.546 13.6015C153.281 13.6015 152.648 14.4626 152.648 16.1848V18.5571H143.475C143.458 18.4166 143.449 18.2408 143.449 18.03C143.449 17.8015 143.449 17.5467 143.449 17.2655C143.449 13.3292 144.371 10.5438 146.217 8.90954C148.079 7.25767 151.023 6.43174 155.047 6.43174C157.156 6.43174 159.045 6.80956 160.714 7.5652C162.384 8.30327 163.702 9.40158 164.668 10.8601C165.652 12.3187 166.144 14.1199 166.144 16.2639V46.3929H156.76V41.7009C156.304 43.3527 155.548 44.618 154.494 45.4966C153.439 46.3753 152.235 46.8146 150.882 46.8146ZM154.599 39.4867C155.372 39.4867 155.899 39.1616 156.181 38.5114C156.462 37.8611 156.602 37.1582 156.602 36.4026V25.3843C155.302 25.9115 154.291 26.5792 153.571 27.3876C152.85 28.1784 152.49 29.347 152.49 30.8934V35.9808C152.49 38.318 153.193 39.4867 154.599 39.4867Z" fill="#AE0E0E"/>
</svg>
