<svg width="21" height="24" viewBox="0 0 21 24" fill="none" xmlns="http://www.w3.org/2000/svg">
<g clip-path="url(#clip0_5668_294)">
<path d="M18.5922 6.33203H2.9525C2.16727 6.33203 1.53072 6.96859 1.53072 7.75382V19.839C1.53072 20.6242 2.16727 21.2608 2.9525 21.2608H18.5922C19.3774 21.2608 20.0139 20.6242 20.0139 19.839V7.75382C20.0139 6.96859 19.3774 6.33203 18.5922 6.33203Z" stroke="white" stroke-width="1.42179" stroke-linecap="round" stroke-linejoin="round"/>
<path d="M1.53072 8.10938L9.86239 15.2183C10.1179 15.4311 10.4398 15.5476 10.7723 15.5476C11.1048 15.5476 11.4268 15.4311 11.6823 15.2183L20.0139 8.10938" stroke="white" stroke-width="1.42179" stroke-linecap="round" stroke-linejoin="round"/>
</g>
<circle cx="11.5" cy="6.5" r="3.5" fill="white"/>
<path d="M11.5 1.21875C8.58262 1.21875 6.21875 3.58262 6.21875 6.5C6.21875 9.41738 8.58262 11.7812 11.5 11.7812C14.4174 11.7812 16.7812 9.41738 16.7812 6.5C16.7812 3.58262 14.4174 1.21875 11.5 1.21875ZM10.685 8.37129C10.624 8.43223 10.5377 8.48301 10.4615 8.48301C10.3854 8.48301 10.299 8.42969 10.2355 8.36875L8.81367 6.94688L9.26562 6.49492L10.4641 7.69336L13.6328 4.50176L14.0771 4.96133L10.685 8.37129Z" fill="#11B95C"/>
<defs>
<clipPath id="clip0_5668_294">
<rect width="19.905" height="19.905" fill="white" transform="translate(0.819824 3.84375)"/>
</clipPath>
</defs>
</svg>
