<svg width="25" height="24" viewBox="0 0 25 24" fill="none" xmlns="http://www.w3.org/2000/svg">
<path d="M6.34118 10.1069H9.30708M6.34118 13.2227H17.1714M18.7667 4.87759C17.8552 3.96533 16.7728 3.24167 15.5814 2.74791C14.39 2.25416 13.113 2 11.8234 2C10.5338 2 9.25678 2.25416 8.06541 2.74791C6.87404 3.24167 5.79164 3.96533 4.88009 4.87759C3.96783 5.78915 3.24414 6.87156 2.75039 8.06293C2.25664 9.2543 2.0025 10.5313 2.0025 11.8209C2.0025 13.1105 2.25664 14.3876 2.75039 15.5789C3.24414 16.7703 3.96783 17.8527 4.88009 18.7642C6.52376 20.4035 8.69508 21.4074 11.0087 21.5977C13.3223 21.788 15.6285 21.1525 17.5179 19.8039L21.4735 21.958C21.5381 21.9935 21.6124 22.007 21.6853 21.9966C21.7582 21.9862 21.8258 21.9524 21.8779 21.9004C21.9299 21.8483 21.9637 21.7807 21.9741 21.7078C21.9845 21.6349 21.971 21.5605 21.9355 21.496L19.7814 17.5404C21.1399 15.6517 21.7836 13.3419 21.5978 11.0228C21.412 8.70368 20.4087 6.52589 18.7667 4.87759Z" stroke="#ffffff" stroke-width="1.561" stroke-linecap="round" stroke-linejoin="round"/>
</svg>
