<svg width="24" height="19" viewBox="0 0 24 19" fill="none" xmlns="http://www.w3.org/2000/svg">
<path d="M19.4594 0.0195312C18.8143 0.0195312 18.2647 0.440377 18.0562 1.01716H17.6702L17.0679 0.415106C16.9744 0.317613 16.8458 0.265061 16.7094 0.265061C16.5066 0.265061 16.3254 0.387825 16.2474 0.574916C16.1713 0.763873 16.2161 0.978245 16.3625 1.12054L17.7559 2.51374L17.2044 3.0651L17.1088 2.96775C16.7951 2.6579 16.2629 2.7047 15.8947 3.07487L13.0353 5.93148C12.665 6.30178 12.6182 6.83376 12.9301 7.14749L13.0255 7.24298L12.474 7.79434L12.1816 7.502L12.5773 7.10657L11.8717 6.40114L11.6223 6.65055L10.3319 5.36059L10.8309 4.86177L10.1254 4.15634L9.48016 4.80132L9.08459 4.40575C8.95981 4.27523 8.77272 4.22268 8.59927 4.26934C8.42381 4.31414 8.28741 4.45055 8.24261 4.62601C8.1958 4.79946 8.24835 4.9864 8.37901 5.11118L8.77459 5.50675L8.12946 6.15174L8.83504 6.85702L9.33399 6.35821L10.6244 7.64817L10.4781 7.79434L10.1857 7.502C9.79792 7.11433 9.16255 7.11433 8.77459 7.502L4.4906 11.785C4.10077 12.1728 4.10077 12.808 4.4906 13.1958L5.78085 14.4858C5.97584 14.6807 6.23113 14.778 6.48643 14.778C6.74172 14.778 6.99716 14.6807 7.192 14.4858L11.4761 10.2028C11.8658 9.81501 11.8658 9.17979 11.4761 8.79197L11.1836 8.49977L11.4761 8.20743L17.3174 14.0473L18.023 13.342C17.8241 13.1432 17.8241 12.8353 18.023 12.6366L22.5995 8.06127C22.7982 7.86255 23.1062 7.86255 23.3049 8.06127L24.0105 7.35598L23.6324 6.97792C23.7922 6.91747 23.9111 6.7792 23.9462 6.61164C23.9813 6.44393 23.9268 6.27062 23.8039 6.15174L23.3049 5.65292C23.2114 5.55543 23.0828 5.50288 22.9464 5.50087C22.7398 5.50288 22.5527 5.63139 22.4804 5.82623L19.6465 2.99503C20.2098 2.92094 20.6757 2.53513 20.8628 2.01492H21.9542V1.01716H20.8628C20.6542 0.440377 20.1046 0.0195312 19.4594 0.0195312ZM19.4594 1.01716C19.7401 1.01716 19.9584 1.2354 19.9584 1.51611C19.9584 1.79668 19.7401 2.01492 19.4594 2.01492C19.1787 2.01492 18.9605 1.79668 18.9605 1.51611C18.9605 1.2354 19.1787 1.01716 19.4594 1.01716ZM18.4615 3.21917L20.2507 5.00794L19.6992 5.55931L19.6037 5.46196C19.2899 5.1521 18.7577 5.19891 18.3894 5.56907L15.5301 8.42568C15.1598 8.79599 15.113 9.32782 15.4248 9.64156L15.5203 9.73704L14.9688 10.2885L13.1796 8.49977L13.7311 7.94827L13.8286 8.04576C13.967 8.18216 14.1482 8.25037 14.3392 8.25037C14.581 8.25037 14.8382 8.14512 15.0429 7.9385L17.9002 5.08002C18.2705 4.71173 18.3174 4.17774 18.0074 3.86602L17.91 3.77053L18.4615 3.21917ZM20.9563 5.71323L21.9971 6.75379L16.7151 12.0344L15.6744 10.994L16.2259 10.4425L16.3234 10.54C16.4618 10.6764 16.643 10.7446 16.8341 10.7446C17.0758 10.7446 17.3331 10.6393 17.5377 10.4327L20.395 7.57423C20.7653 7.20593 20.8121 6.67194 20.5021 6.36022L20.4048 6.26474L20.9563 5.71323ZM4.28399 13.6947L1.99582 15.9822L2.99374 16.98L5.2819 14.6923L4.28399 13.6947ZM1.89244 16.5844L0.997912 17.4788L0 18.9753L1.49687 17.9776L2.3914 17.0833L1.89244 16.5844Z" fill="white"/>
</svg>
