<svg width="14" height="14" viewBox="0 0 14 14" fill="none" xmlns="http://www.w3.org/2000/svg">
<g clip-path="url(#clip0_5033_4216)">
<path d="M5.5 12.5015C5.77635 12.2468 5.99691 11.9376 6.14777 11.5933C6.29864 11.2491 6.37652 10.8774 6.37652 10.5015C6.37652 10.1257 6.29864 9.75393 6.14777 9.4097C5.99691 9.06548 5.77635 8.75625 5.5 8.50152C5.24528 8.22518 4.93605 8.00461 4.59182 7.85375C4.24759 7.70289 3.87584 7.625 3.5 7.625C3.12416 7.625 2.75241 7.70289 2.40818 7.85375C2.06395 8.00461 1.75472 8.22518 1.5 8.50152C0.5 9.50152 0.5 13.5015 0.5 13.5015C0.5 13.5015 4.5 13.5015 5.5 12.5015Z" stroke="white" stroke-linecap="round" stroke-linejoin="round"/>
<path d="M12.92 1.08067C12.5736 0.738664 12.1144 0.534743 11.6284 0.507129C11.1424 0.479515 10.663 0.630103 10.28 0.930667L4.50004 5.00067L3.79004 7.64067C4.44166 7.72321 5.04524 8.02677 5.50004 8.50067C5.97393 8.95546 6.27749 9.55905 6.36004 10.2107L9.00004 9.50067L13.07 3.72067C13.3706 3.33775 13.5212 2.85835 13.4936 2.37234C13.466 1.88633 13.262 1.42708 12.92 1.08067V1.08067Z" stroke="white" stroke-linecap="round" stroke-linejoin="round"/>
<path d="M0.5 13.5L3.75 10.25" stroke="white" stroke-linecap="round" stroke-linejoin="round"/>
</g>
<defs>
<clipPath id="clip0_5033_4216">
<rect width="14" height="14" fill="white"/>
</clipPath>
</defs>
</svg>
