<svg width="14" height="15" viewBox="0 0 14 15" fill="none" xmlns="http://www.w3.org/2000/svg">
<g clip-path="url(#clip0_5175_5189)">
<path d="M0.5 13.957H11.5" stroke="#AE0E0E" stroke-linecap="round" stroke-linejoin="round"/>
<path d="M4.90918 12.1503L1.90918 12.6903L2.40918 9.65033L9.13918 2.94033C9.23214 2.8466 9.34274 2.77221 9.4646 2.72144C9.58646 2.67067 9.71717 2.64453 9.84918 2.64453C9.98119 2.64453 10.1119 2.67067 10.2338 2.72144C10.3556 2.77221 10.4662 2.8466 10.5592 2.94033L11.6192 4.00033C11.7129 4.09329 11.7873 4.20389 11.8381 4.32575C11.8888 4.44761 11.915 4.57832 11.915 4.71033C11.915 4.84234 11.8888 4.97305 11.8381 5.09491C11.7873 5.21677 11.7129 5.32737 11.6192 5.42033L4.90918 12.1503Z" stroke="#AE0E0E" stroke-linecap="round" stroke-linejoin="round"/>
</g>
<defs>
<clipPath id="clip0_5175_5189">
<rect width="14" height="14" fill="white" transform="translate(0 0.417969)"/>
</clipPath>
</defs>
</svg>
