<svg width="22" height="22" viewBox="0 0 22 22" fill="none" xmlns="http://www.w3.org/2000/svg">
<g clip-path="url(#clip0_4918_1677)">
<path d="M0.785645 21.2754H18.0714" stroke="#000001" stroke-width="1.57143" stroke-linecap="round" stroke-linejoin="round"/>
<path d="M7.71429 18.4377L3 19.2863L3.78571 14.5091L14.3614 3.96483C14.5075 3.81754 14.6813 3.70063 14.8728 3.62085C15.0643 3.54107 15.2697 3.5 15.4771 3.5C15.6846 3.5 15.89 3.54107 16.0815 3.62085C16.273 3.70063 16.4468 3.81754 16.5929 3.96483L18.2586 5.63054C18.4059 5.77663 18.5228 5.95043 18.6025 6.14192C18.6823 6.33341 18.7234 6.53881 18.7234 6.74625C18.7234 6.9537 18.6823 7.1591 18.6025 7.35059C18.5228 7.54208 18.4059 7.71588 18.2586 7.86197L7.71429 18.4377Z" stroke="white" stroke-width="1.57143" stroke-linecap="round" stroke-linejoin="round"/>
</g>
<defs>
<clipPath id="clip0_4918_1677">
<rect width="22" height="22" fill="white"/>
</clipPath>
</defs>
</svg>
