<svg width="22" height="22" viewBox="0 0 22 22" fill="none" xmlns="http://www.w3.org/2000/svg">
<path d="M11 5.40768C12.0633 5.40768 12.925 6.26935 12.925 7.33268C12.925 8.39602 12.0633 9.25768 11 9.25768C9.93663 9.25768 9.07496 8.39602 9.07496 7.33268C9.07496 6.26935 9.93663 5.40768 11 5.40768ZM11 13.6577C13.7225 13.6577 16.5916 14.996 16.5916 15.5827V16.591H5.40829V15.5827C5.40829 14.996 8.27746 13.6577 11 13.6577ZM11 3.66602C8.97413 3.66602 7.33329 5.30685 7.33329 7.33268C7.33329 9.35852 8.97413 10.9993 11 10.9993C13.0258 10.9993 14.6666 9.35852 14.6666 7.33268C14.6666 5.30685 13.0258 3.66602 11 3.66602ZM11 11.916C8.55246 11.916 3.66663 13.1443 3.66663 15.5827V18.3327H18.3333V15.5827C18.3333 13.1443 13.4475 11.916 11 11.916Z" fill="white"/>
</svg>
