<svg width="31" height="30" viewBox="0 0 31 30" fill="none" xmlns="http://www.w3.org/2000/svg">
<path d="M28.4319 13.7876H16.7123V2.06802C16.7123 1.39845 16.1695 0.855652 15.4999 0.855652C14.8303 0.855652 14.2875 1.39845 14.2875 2.06802V13.7876H2.56796C1.89839 13.7876 1.35559 14.3304 1.35559 15C1.35559 15.6696 1.89839 16.2124 2.56796 16.2124H14.2875V27.9319C14.2875 28.6015 14.8303 29.1443 15.4999 29.1443C16.1695 29.1443 16.7123 28.6015 16.7123 27.9319V16.2124H28.4319C29.1015 16.2124 29.6443 15.6696 29.6443 15C29.6443 14.3304 29.1015 13.7876 28.4319 13.7876Z" fill="white" stroke="white" stroke-width="1.38557"/>
</svg>
