<svg xmlns="http://www.w3.org/2000/svg" width="14" height="13" viewBox="0 0 14 13" fill="none">
  <path d="M13.5579 0.60936C13.5406 0.153463 13.0359 -0.127561 12.6281 0.0577683L0.370626 5.86394C-0.0832717 6.06244 -0.133256 6.7484 0.292843 7.00689L3.16567 8.88517V12.019C3.14886 12.584 3.8954 12.8999 4.28661 12.4832L6.01924 10.7508L8.44412 12.3362C8.55228 12.407 8.67754 12.4433 8.80365 12.4433C9.07332 12.4455 9.32874 12.2686 9.41969 12.0139L13.5255 0.878339C13.5563 0.790533 13.5705 0.69983 13.5579 0.60936ZM9.76451 2.86746L4.46567 8.16613L1.99216 6.54903L9.76451 2.86746ZM4.47898 10.4338V9.7438L4.89626 10.0166L4.47898 10.4338ZM8.47276 10.7858L5.58863 8.9003L11.2584 3.23063L8.47276 10.7858Z" fill="white"/>
</svg>