<svg width="14" height="14" viewBox="0 0 14 14" fill="none" xmlns="http://www.w3.org/2000/svg">
<g clip-path="url(#clip0_6070_6012)">
<path d="M7 13.5C10.5899 13.5 13.5 10.5899 13.5 7C13.5 3.41015 10.5899 0.5 7 0.5C3.41015 0.5 0.5 3.41015 0.5 7C0.5 10.5899 3.41015 13.5 7 13.5Z" stroke="white" stroke-linecap="round" stroke-linejoin="round"/>
<path d="M3.7002 8C4.2002 9.8 6.2002 10.9 8.0002 10.4C9.1002 10 10.0002 9.1 10.3002 8" stroke="white" stroke-linecap="round" stroke-linejoin="round"/>
<path d="M4.79961 5.4C4.68915 5.4 4.59961 5.31046 4.59961 5.2C4.59961 5.08954 4.68915 5 4.79961 5" stroke="white" stroke-linecap="round" stroke-linejoin="round"/>
<path d="M4.7998 5.4C4.91026 5.4 4.9998 5.31046 4.9998 5.2C4.9998 5.08954 4.91026 5 4.7998 5" stroke="white" stroke-linecap="round" stroke-linejoin="round"/>
<path d="M9.2 5.4C9.08954 5.4 9 5.31046 9 5.2C9 5.08954 9.08954 5 9.2 5" stroke="white" stroke-linecap="round" stroke-linejoin="round"/>
<path d="M9.2002 5.4C9.31065 5.4 9.4002 5.31046 9.4002 5.2C9.4002 5.08954 9.31065 5 9.2002 5" stroke="white" stroke-linecap="round" stroke-linejoin="round"/>
</g>
<defs>
<clipPath id="clip0_6070_6012">
<rect width="14" height="14" fill="white"/>
</clipPath>
</defs>
</svg>
