<svg width="14" height="14" viewBox="0 0 14 14" fill="none" xmlns="http://www.w3.org/2000/svg">
<g clip-path="url(#clip0_6239_4949)">
<path d="M6.00022 1.04998C6.10636 0.880548 6.25381 0.74086 6.42872 0.644029C6.60364 0.547198 6.80029 0.496399 7.00022 0.496399C7.20015 0.496399 7.39681 0.547198 7.57172 0.644029C7.74664 0.74086 7.89409 0.880548 8.00022 1.04998L9.94022 4.11998L12.4702 4.42998C12.6801 4.45342 12.8795 4.53369 13.0471 4.66213C13.2147 4.79056 13.344 4.9623 13.4212 5.15883C13.4983 5.35535 13.5204 5.56921 13.485 5.77735C13.4496 5.9855 13.358 6.18003 13.2202 6.33998L11.1102 8.75998L11.7902 12.11C11.8328 12.3286 11.8122 12.5548 11.7307 12.762C11.6492 12.9693 11.5103 13.149 11.3302 13.28C11.1479 13.4086 10.9331 13.4834 10.7103 13.4958C10.4875 13.5081 10.2657 13.4576 10.0702 13.35L7.00022 11.67L3.93022 13.35C3.73476 13.4576 3.51298 13.5081 3.29018 13.4958C3.06739 13.4834 2.85256 13.4086 2.67022 13.28C2.49015 13.149 2.35121 12.9693 2.26973 12.762C2.18824 12.5548 2.1676 12.3286 2.21022 12.11L2.89022 8.75998L0.780224 6.33998C0.64241 6.18003 0.550864 5.9855 0.515454 5.77735C0.480044 5.56921 0.502114 5.35535 0.579283 5.15883C0.656453 4.9623 0.785796 4.79056 0.953371 4.66213C1.12095 4.53369 1.3204 4.45342 1.53022 4.42998L4.06022 4.11998L6.00022 1.04998Z" stroke="white" stroke-linecap="round" stroke-linejoin="round"/>
</g>
<defs>
<clipPath id="clip0_6239_4949">
<rect width="14" height="14" fill="white"/>
</clipPath>
</defs>
</svg>
