<svg width="17" height="17" viewBox="0 0 17 17" fill="none" xmlns="http://www.w3.org/2000/svg">
<circle cx="8.5" cy="8.5" r="8.16" fill="#F49E00" stroke="#F49E00" stroke-width="0.68"/>
<path d="M7.99872 5.17332C8.04601 5.05152 8.129 4.94685 8.23682 4.87305C8.34464 4.79926 8.47225 4.75977 8.60291 4.75977C8.73357 4.75977 8.86118 4.79926 8.969 4.87305C9.07682 4.94685 9.15982 5.05152 9.20711 5.17332L9.91017 6.97491H11.7887C11.9222 6.97688 12.0522 7.01872 12.1618 7.09505C12.2714 7.17139 12.3557 7.27875 12.4038 7.40334C12.4409 7.52022 12.4441 7.64523 12.413 7.76385C12.3819 7.88246 12.3178 7.98982 12.2281 8.07345L10.5693 9.54548L11.2723 10.9516C11.336 11.0751 11.3576 11.2159 11.3338 11.3527C11.31 11.4896 11.2421 11.6149 11.1405 11.7096C11.0414 11.8085 10.9129 11.8727 10.7743 11.8925C10.6357 11.9123 10.4944 11.8867 10.3716 11.8194L8.60291 10.8527L6.83427 11.8194C6.71143 11.8867 6.57012 11.9123 6.4315 11.8925C6.29288 11.8727 6.1644 11.8085 6.0653 11.7096C5.96371 11.6149 5.89586 11.4896 5.87206 11.3527C5.84827 11.2159 5.86983 11.0751 5.93347 10.9516L6.63653 9.54548L4.97775 8.07345C4.87956 7.98625 4.81018 7.87128 4.7788 7.74376C4.74741 7.61625 4.75549 7.48221 4.80198 7.3594C4.8568 7.24303 4.94396 7.14489 5.05304 7.07671C5.16213 7.00853 5.28853 6.97319 5.41716 6.97491H7.29566L7.99872 5.17332Z" fill="white"/>
</svg>
