<svg width="11" height="10" viewBox="0 0 11 10" fill="none" xmlns="http://www.w3.org/2000/svg">
<path d="M8.46222 0C8.5688 0 8.66776 0.0513869 8.72923 0.136218L8.75319 0.174569L10.5148 3.47758L10.5336 3.52261L10.5387 3.53922L10.5462 3.57321L10.5503 3.6119L10.5494 3.6556L10.5506 3.62716C10.5506 3.67336 10.5411 3.71737 10.5239 3.75734L10.5112 3.78354L10.4934 3.81282L10.4702 3.84294L5.53847 9.54258C5.49446 9.60167 5.43419 9.64063 5.36872 9.65936L5.34322 9.66556L5.3004 9.67149L5.27463 9.67241L5.23041 9.66943L5.19299 9.66235L5.14757 9.64744L5.13628 9.64208C5.09657 9.62454 5.06008 9.59838 5.02957 9.56404L0.0739148 3.83656L0.0466078 3.79805L0.025544 3.75712L0.0102967 3.71346L0.000123061 3.65582L0 3.59981L0.00653324 3.55641L0.0107495 3.53918L0.0256538 3.49693L0.0376741 3.472L1.79629 0.174569C1.84644 0.0805492 1.93835 0.0174104 2.04213 0.00309518L2.08724 0H8.46222ZM6.99202 3.9569H3.55611L5.27516 8.42379L6.99202 3.9569ZM2.85004 3.9569H1.04922L4.29077 7.70188L2.85004 3.9569ZM9.49893 3.9569H7.69942L6.26043 7.6988L9.49893 3.9569ZM3.52665 0.659043H2.28465L0.87731 3.29741H2.82278L3.52665 0.659043ZM6.34001 0.659043H4.209L3.50513 3.29741H7.04346L6.34001 0.659043ZM8.26438 0.659043H7.02235L7.72624 3.29741H9.67084L8.26438 0.659043Z" fill="#F49E00"/>
</svg>
