<svg width="16" height="16" viewBox="0 0 16 16" fill="none" xmlns="http://www.w3.org/2000/svg">
<g clip-path="url(#clip0_5175_4441)">
<path fill-rule="evenodd" clip-rule="evenodd" d="M16 2.28571C16 1.02286 14.9771 0 13.7143 0H2.28571C1.02286 0 0 1.02286 0 2.28571V13.7143C0 14.9771 1.02286 16 2.28571 16H13.7143C14.9771 16 16 14.9771 16 13.7143V2.28571Z" fill="#070201"/>
<path fill-rule="evenodd" clip-rule="evenodd" d="M12.4686 6.7585C12.4686 6.84422 12.4315 6.92422 12.3629 6.9785C12.2972 7.03279 12.2115 7.04136 12.1258 7.0385C11.5943 7.02422 10.7629 6.84136 10.3715 6.46708V10.0499C10.3715 11.7014 9.03434 13.0385 7.38291 13.0385H7.07434C6.38291 13.0385 5.72576 12.7871 5.19434 12.3556C5.60291 12.5585 6.05148 12.6785 6.51719 12.6785H6.82576C8.47719 12.6785 9.81434 11.3414 9.81434 9.68993V6.10708C10.2058 6.4785 11.0372 6.66422 11.5686 6.6785C11.6543 6.6785 11.74 6.67279 11.8058 6.6185C11.8715 6.56422 11.9115 6.48422 11.9115 6.3985C11.9115 5.99279 11.9115 5.3185 11.9115 4.96422C12.02 4.99565 12.1315 5.02136 12.2429 5.04708C12.3743 5.07565 12.4686 5.18993 12.4686 5.32422C12.4686 5.6785 12.4686 6.35565 12.4686 6.7585ZM6.87434 8.02422C6.82005 8.07851 6.74862 8.10708 6.67148 8.10708C5.88291 8.10708 5.24291 8.74708 5.24291 9.53565C5.24291 10.1556 5.64005 10.6785 6.19434 10.8756C5.95148 10.6185 5.80005 10.2756 5.80005 9.89565C5.80005 9.10708 6.44005 8.46708 7.22862 8.46708C7.30576 8.46708 7.37719 8.4385 7.43148 8.38422C7.48576 8.32993 7.51434 8.2585 7.51434 8.18136V7.32422C7.51434 7.24993 7.48291 7.17565 7.43148 7.12136C7.38005 7.06708 7.30576 7.0385 7.22862 7.0385H7.07434C7.03434 7.0385 6.99719 7.04993 6.95719 7.04993V7.82136C6.95719 7.8985 6.92576 7.96993 6.87434 8.02422ZM10.78 4.3985C10.5429 4.18422 10.3429 3.90136 10.2 3.51565C10.1572 3.40422 10.0515 3.32422 9.93148 3.32422H9.72005C9.96862 3.86993 10.3372 4.18993 10.78 4.39565V4.3985Z" fill="#FE2C55"/>
<path fill-rule="evenodd" clip-rule="evenodd" d="M4.9628 12.1648C5.03423 12.2363 5.11994 12.2934 5.19709 12.3563C4.90851 12.2134 4.63709 12.0363 4.40566 11.8048C3.84566 11.2448 3.53137 10.4848 3.53137 9.69056V9.6677C3.53137 8.01627 4.86851 6.67913 6.51994 6.67913H6.67423C6.75137 6.67913 6.8228 6.71056 6.87709 6.76199C6.93137 6.81627 6.95994 6.8877 6.95994 6.96484V7.05056C5.36566 7.11341 4.08851 8.41627 4.08851 10.0277V10.0506C4.08851 10.842 4.4028 11.602 4.9628 12.1648ZM11.9085 4.96484C11.9085 4.83056 11.8142 4.71342 11.6828 4.6877C11.3628 4.61627 11.0571 4.53056 10.7771 4.39913C11.0942 4.68484 11.4828 4.8477 11.9057 4.96484H11.9085ZM7.22851 11.3277C7.60851 11.3277 7.97137 11.1763 8.23994 10.9106C8.50851 10.6448 8.65709 10.2791 8.65709 9.89913V3.61342C8.65709 3.45627 8.78566 3.3277 8.9428 3.3277H9.71994C9.69423 3.27056 9.66566 3.21913 9.6428 3.15627C9.59994 3.04484 9.49423 2.96484 9.37423 2.96484H8.38566C8.22851 2.96484 8.09994 3.09342 8.09994 3.25056V9.53627C8.09994 9.91627 7.94851 10.2791 7.6828 10.5477C7.41709 10.8163 7.05137 10.9648 6.67137 10.9648C6.5028 10.9648 6.3428 10.9306 6.19423 10.8763C6.45423 11.1506 6.81994 11.3248 7.22851 11.3248V11.3277Z" fill="#25F4EE"/>
<path fill-rule="evenodd" clip-rule="evenodd" d="M6.82857 12.6756C8.48 12.6756 9.81714 11.3385 9.81714 9.68708V6.10422C10.2086 6.47565 11.04 6.66136 11.5714 6.67565C11.6571 6.67565 11.7429 6.66993 11.8086 6.61565C11.8743 6.56136 11.9143 6.48136 11.9143 6.39565C11.9143 5.98993 11.9143 5.31565 11.9143 4.96136C11.4914 4.84422 11.1029 4.68136 10.7857 4.39565C10.3457 4.18993 9.97429 3.86708 9.72572 3.32422H8.94857C8.79143 3.32422 8.66286 3.45279 8.66286 3.60993V9.89565C8.66286 10.2756 8.51143 10.6385 8.24572 10.9071C7.98 11.1756 7.61429 11.3242 7.23429 11.3242C6.82572 11.3242 6.46 11.1499 6.2 10.8756C5.64857 10.6785 5.24857 10.1556 5.24857 9.53565C5.24857 8.74708 5.88857 8.10708 6.67715 8.10708C6.75429 8.10708 6.82572 8.07851 6.88 8.02422C6.93429 7.96993 6.96286 7.8985 6.96286 7.82136V7.04993C5.36857 7.11279 4.09143 8.41565 4.09143 10.0271V10.0499C4.09143 10.8414 4.40572 11.6014 4.96572 12.1642C5.03714 12.2356 5.12286 12.2928 5.2 12.3556C5.60857 12.5585 6.05714 12.6785 6.52286 12.6785H6.83143L6.82857 12.6756Z" fill="white"/>
</g>
<defs>
<clipPath id="clip0_5175_4441">
<rect width="16" height="16" fill="white"/>
</clipPath>
</defs>
</svg>
