<svg width="57" height="56" viewBox="0 0 57 56" fill="none" xmlns="http://www.w3.org/2000/svg">
<rect x="0.499939" width="56" height="56" rx="28" fill="#AE0E0E"/>
<path d="M41.4319 26.7876H29.7123V15.068C29.7123 14.3984 29.1695 13.8557 28.4999 13.8557C27.8303 13.8557 27.2875 14.3984 27.2875 15.068V26.7876H15.568C14.8984 26.7876 14.3556 27.3304 14.3556 28C14.3556 28.6696 14.8984 29.2124 15.568 29.2124H27.2875V40.9319C27.2875 41.6015 27.8303 42.1443 28.4999 42.1443C29.1695 42.1443 29.7123 41.6015 29.7123 40.9319V29.2124H41.4319C42.1015 29.2124 42.6443 28.6696 42.6443 28C42.6443 27.3304 42.1015 26.7876 41.4319 26.7876Z" fill="white" stroke="white" stroke-width="1.38557"/>
</svg>
