<svg width="48" height="48" viewBox="0 0 48 48" fill="none" xmlns="http://www.w3.org/2000/svg">
<g clip-path="url(#clip0_5054_2504)">
<path d="M3.11977 43.0626L1.71405 19.0626C1.68482 18.8208 1.70744 18.5756 1.7804 18.3433C1.85337 18.1109 1.975 17.8968 2.1372 17.7151C2.29939 17.5335 2.49844 17.3884 2.72107 17.2897C2.9437 17.191 3.18481 17.1409 3.42834 17.1426H19.2341C19.6183 17.145 19.9911 17.2739 20.2948 17.5094C20.5985 17.7449 20.8161 18.0739 20.9141 18.4455L22.2855 23.9998H44.5712C44.8083 23.999 45.0431 24.0475 45.2605 24.1421C45.478 24.2367 45.6735 24.3753 45.8346 24.5493C45.9957 24.7234 46.1189 24.9289 46.1966 25.153C46.2742 25.3771 46.3045 25.6148 46.2855 25.8512L44.9483 42.9941C44.8792 43.855 44.4877 44.6582 43.8521 45.243C43.2164 45.8278 42.3835 46.1511 41.5198 46.1483H6.54834C5.69542 46.1526 4.87154 45.8388 4.23756 45.2683C3.60359 44.6977 3.20505 43.9113 3.11977 43.0626Z" stroke="white" stroke-width="3.42857" stroke-linecap="round" stroke-linejoin="round"/>
<path d="M12 10.2863V3.42913C12 2.97447 12.1806 2.53844 12.5021 2.21695C12.8236 1.89546 13.2596 1.71484 13.7143 1.71484H42.8571C43.3118 1.71484 43.7478 1.89546 44.0693 2.21695C44.3908 2.53844 44.5714 2.97447 44.5714 3.42913V17.1434" stroke="white" stroke-width="3.42857" stroke-linecap="round" stroke-linejoin="round"/>
<path d="M25.7141 10.2852H35.9998" stroke="white" stroke-width="3.42857" stroke-linecap="round" stroke-linejoin="round"/>
</g>
<defs>
<clipPath id="clip0_5054_2504">
<rect width="48" height="48" fill="white"/>
</clipPath>
</defs>
</svg>
