<svg width="46" height="46" viewBox="0 0 46 46" fill="none" xmlns="http://www.w3.org/2000/svg">
<g clip-path="url(#clip0_5029_4108)">
<path d="M44.3571 34.5V41.0714C44.3571 41.9429 44.011 42.7786 43.3948 43.3948C42.7786 44.011 41.9429 44.3571 41.0714 44.3571H34.5" stroke="white" stroke-width="3.28571" stroke-linecap="round" stroke-linejoin="round"/>
<path d="M34.5 1.64258H41.0714C41.9429 1.64258 42.7786 1.98875 43.3948 2.60494C44.011 3.22113 44.3571 4.05687 44.3571 4.92829V11.4997" stroke="white" stroke-width="3.28571" stroke-linecap="round" stroke-linejoin="round"/>
<path d="M1.64294 11.4997V4.92829C1.64294 4.05687 1.98912 3.22113 2.60531 2.60494C3.2215 1.98875 4.05723 1.64258 4.92866 1.64258H11.5001" stroke="white" stroke-width="3.28571" stroke-linecap="round" stroke-linejoin="round"/>
<path d="M11.5001 44.3571H4.92866C4.05723 44.3571 3.2215 44.011 2.60531 43.3948C1.98912 42.7786 1.64294 41.9429 1.64294 41.0714V34.5" stroke="white" stroke-width="3.28571" stroke-linecap="round" stroke-linejoin="round"/>
<path d="M23 21.3557C26.6293 21.3557 29.5714 18.4136 29.5714 14.7843C29.5714 11.155 26.6293 8.21289 23 8.21289C19.3707 8.21289 16.4286 11.155 16.4286 14.7843C16.4286 18.4136 19.3707 21.3557 23 21.3557Z" stroke="white" stroke-width="3.28571" stroke-linecap="round" stroke-linejoin="round"/>
<path d="M33.3828 34.4971C32.4484 32.535 30.9772 30.8777 29.1396 29.7175C27.3019 28.5572 25.1732 27.9414 22.9999 27.9414C20.8267 27.9414 18.6979 28.5572 16.8603 29.7175C15.0227 30.8777 13.5514 32.535 12.6171 34.4971" stroke="white" stroke-width="3.28571" stroke-linecap="round" stroke-linejoin="round"/>
</g>
<defs>
<clipPath id="clip0_5029_4108">
<rect width="46" height="46" fill="white"/>
</clipPath>
</defs>
</svg>
