<svg width="19" height="21" viewBox="0 0 19 21" fill="none" xmlns="http://www.w3.org/2000/svg">
<mask id="mask0_4982_2212" style="mask-type:luminance" maskUnits="userSpaceOnUse" x="0" y="11" width="19" height="10">
<path d="M0.556519 11.9336H18.4434V20.4995H0.556519V11.9336Z" fill="white"/>
</mask>
<g mask="url(#mask0_4982_2212)">
<path d="M12.3092 11.9551H6.69069C6.59024 11.9552 6.48993 11.9578 6.38975 11.9627C6.28943 11.9678 6.18939 11.9753 6.08963 11.9851C5.98972 11.9951 5.89009 12.0076 5.79087 12.0223C5.69165 12.0371 5.59271 12.0543 5.4943 12.074C5.3959 12.0937 5.29805 12.1157 5.20074 12.1401C5.10344 12.1646 5.00668 12.1914 4.91074 12.2206C4.81466 12.2499 4.7194 12.2813 4.62496 12.3152C4.53039 12.3491 4.43691 12.3852 4.34411 12.4237C4.25145 12.4621 4.15975 12.5028 4.069 12.5458C3.97839 12.5887 3.88874 12.6339 3.80031 12.6812C3.71175 12.7285 3.62442 12.778 3.53846 12.8296C3.45236 12.8813 3.36763 12.935 3.28412 12.9907C3.20076 13.0465 3.11876 13.1043 3.03812 13.164C2.95749 13.2239 2.87836 13.2857 2.80087 13.3492C2.72324 13.4129 2.64725 13.4785 2.57291 13.5459C2.49856 13.6133 2.42599 13.6824 2.35492 13.7535C2.28399 13.8244 2.21484 13.897 2.14746 13.9713C2.07995 14.0457 2.01448 14.1217 1.9508 14.1993C1.88711 14.2768 1.82534 14.3559 1.76561 14.4365C1.70575 14.517 1.64794 14.599 1.59218 14.6825C1.53642 14.7659 1.48271 14.8506 1.43105 14.9367C1.37953 15.0228 1.32992 15.11 1.28263 15.1986C1.23534 15.287 1.19011 15.3767 1.14719 15.4673C1.10428 15.558 1.06355 15.6497 1.02515 15.7424C0.98661 15.8351 0.95053 15.9287 0.916637 16.0231C0.882743 16.1177 0.851173 16.2128 0.822063 16.3089C0.792816 16.4048 0.766029 16.5016 0.741566 16.5989C0.717103 16.6962 0.694962 16.7941 0.675419 16.8925C0.655739 16.9909 0.638519 17.0897 0.623622 17.189C0.608862 17.2882 0.596562 17.3877 0.586585 17.4876C0.576609 17.5875 0.569229 17.6876 0.564172 17.7878C0.559115 17.8881 0.556519 17.9883 0.556519 18.0887V19.9624C0.556519 19.997 0.559799 20.0312 0.566632 20.065C0.573329 20.0989 0.583305 20.1317 0.596562 20.1637C0.609682 20.1956 0.625945 20.2259 0.645079 20.2546C0.664349 20.2833 0.686079 20.31 0.710543 20.3343C0.735006 20.3587 0.761519 20.3806 0.790219 20.3997C0.819056 20.419 0.84926 20.4351 0.88124 20.4484C0.913083 20.4617 0.94602 20.4716 0.979914 20.4783C1.01381 20.485 1.04797 20.4884 1.08255 20.4884H17.9174C17.9518 20.4884 17.9861 20.485 18.02 20.4783C18.0537 20.4716 18.0867 20.4617 18.1187 20.4484C18.1505 20.4351 18.1808 20.419 18.2095 20.3997C18.2382 20.3806 18.2649 20.3587 18.2892 20.3343C18.3137 20.31 18.3356 20.2833 18.3547 20.2546C18.374 20.2259 18.3901 20.1956 18.4033 20.1637C18.4166 20.1317 18.4266 20.0989 18.4333 20.065C18.44 20.0312 18.4434 19.997 18.4434 19.9624V18.0887C18.4432 17.9883 18.4407 17.8881 18.4357 17.7878C18.4307 17.6876 18.4232 17.5875 18.4133 17.4876C18.4033 17.3877 18.391 17.2882 18.3761 17.189C18.3614 17.0897 18.3442 16.9909 18.3245 16.8925C18.3048 16.7941 18.2828 16.6962 18.2583 16.5989C18.2339 16.5016 18.2071 16.4048 18.1778 16.3089C18.1486 16.2128 18.1172 16.1177 18.0833 16.0231C18.0494 15.9287 18.0132 15.8351 17.9748 15.7424C17.9363 15.6497 17.8956 15.558 17.8527 15.4673C17.8097 15.3767 17.7646 15.287 17.7173 15.1986C17.6698 15.11 17.6204 15.0228 17.5687 14.9367C17.5172 14.8506 17.4635 14.7659 17.4076 14.6825C17.3518 14.599 17.294 14.517 17.2343 14.4365C17.1744 14.3559 17.1128 14.2768 17.0491 14.1993C16.9854 14.1217 16.9198 14.0457 16.8524 13.9713C16.7851 13.897 16.7159 13.8244 16.6448 13.7535C16.5739 13.6824 16.5012 13.6133 16.4269 13.5459C16.3525 13.4785 16.2765 13.4129 16.199 13.3492C16.1214 13.2857 16.0423 13.2239 15.9618 13.164C15.8811 13.1043 15.7991 13.0465 15.7156 12.9907C15.6323 12.935 15.5475 12.8813 15.4614 12.8296C15.3753 12.7781 15.2881 12.7285 15.1996 12.6812C15.1112 12.6339 15.0215 12.5887 14.9308 12.5458C14.8402 12.5028 14.7485 12.4621 14.6557 12.4237C14.563 12.3852 14.4694 12.3491 14.3749 12.3152C14.2805 12.2813 14.1852 12.2499 14.0892 12.2206C13.9931 12.1914 13.8965 12.1646 13.7992 12.1401C13.7019 12.1157 13.6039 12.0937 13.5055 12.074C13.4071 12.0543 13.3083 12.0371 13.209 12.0223C13.1097 12.0076 13.0102 11.9951 12.9103 11.9851C12.8104 11.9753 12.7103 11.9678 12.6102 11.9627C12.5098 11.9578 12.4095 11.9552 12.3092 11.9551Z" fill="white"/>
</g>
<path d="M14.2347 5.23443C14.2347 5.31178 14.2328 5.38927 14.2289 5.46662C14.2251 5.54411 14.2195 5.62133 14.2118 5.69841C14.2042 5.77549 14.1948 5.85243 14.1834 5.92897C14.1721 6.00564 14.1588 6.08203 14.1436 6.15802C14.1286 6.23401 14.1115 6.30959 14.0928 6.38475C14.0739 6.45992 14.0533 6.53454 14.0308 6.60861C14.0082 6.68282 13.984 6.75635 13.9579 6.82933C13.9318 6.90231 13.9039 6.97447 13.8743 7.04609C13.8446 7.1177 13.8132 7.18849 13.7801 7.25847C13.7469 7.32858 13.7121 7.39773 13.6756 7.46606C13.6391 7.5344 13.6008 7.60177 13.561 7.66833C13.5211 7.73475 13.4797 7.80021 13.4367 7.86458C13.3936 7.92896 13.3491 7.99237 13.3029 8.05455C13.2567 8.11687 13.2091 8.17783 13.1599 8.23782C13.1107 8.29768 13.0602 8.35631 13.0081 8.41371C12.956 8.47111 12.9027 8.52728 12.8479 8.58195C12.7931 8.63675 12.7369 8.69019 12.6795 8.74226C12.6221 8.79433 12.5635 8.8449 12.5036 8.89396C12.4436 8.94316 12.3826 8.99086 12.3204 9.03705C12.2582 9.08311 12.1948 9.1278 12.1304 9.17085C12.0659 9.2139 12.0004 9.25531 11.934 9.29508C11.8676 9.33499 11.8002 9.37312 11.7319 9.40961C11.6635 9.4461 11.5943 9.48095 11.5243 9.51416C11.4542 9.54723 11.3834 9.57866 11.3118 9.60832C11.2402 9.63798 11.168 9.66586 11.095 9.69196C11.022 9.71807 10.9485 9.74226 10.8743 9.76481C10.8001 9.78736 10.7255 9.80799 10.6503 9.82672C10.5751 9.84558 10.4996 9.86252 10.4236 9.87769C10.3476 9.89286 10.2713 9.90598 10.1947 9.91746C10.118 9.92881 10.041 9.93824 9.96396 9.94589C9.88688 9.95341 9.80966 9.95915 9.73217 9.96297C9.65482 9.9668 9.57733 9.96871 9.49984 9.96871C9.42234 9.96871 9.34499 9.9668 9.2675 9.96297C9.19015 9.95915 9.11293 9.95341 9.03585 9.94589C8.95863 9.93824 8.88183 9.92881 8.80516 9.91746C8.72849 9.90598 8.65223 9.89286 8.5761 9.87769C8.50011 9.86252 8.42454 9.84558 8.34937 9.82672C8.2742 9.80799 8.19958 9.78736 8.12551 9.76481C8.0513 9.74226 7.97777 9.71807 7.90479 9.69196C7.83181 9.66586 7.75952 9.63798 7.6879 9.60832C7.61642 9.57866 7.54549 9.54723 7.47552 9.51416C7.40541 9.48095 7.33626 9.4461 7.26792 9.40961C7.19959 9.37312 7.13221 9.33499 7.06566 9.29508C6.99924 9.25531 6.93377 9.2139 6.8694 9.17085C6.80489 9.1278 6.74162 9.08311 6.67943 9.03705C6.61711 8.99086 6.55602 8.94316 6.49616 8.89396C6.4363 8.8449 6.37767 8.79433 6.32014 8.74226C6.26274 8.69019 6.2067 8.63675 6.1519 8.58195C6.0971 8.52728 6.04366 8.47111 5.99159 8.41371C5.93965 8.35631 5.88895 8.29768 5.83989 8.23782C5.79069 8.17783 5.74299 8.11687 5.69693 8.05455C5.65074 7.99237 5.60605 7.92896 5.563 7.86458C5.51995 7.80021 5.47854 7.73475 5.43877 7.66833C5.39886 7.60177 5.36073 7.5344 5.32424 7.46606C5.28762 7.39773 5.25277 7.32858 5.21969 7.25847C5.18662 7.18849 5.15518 7.1177 5.12553 7.04609C5.09587 6.97447 5.06799 6.90231 5.04189 6.82933C5.01578 6.75635 4.99146 6.68282 4.96904 6.60861C4.94649 6.53454 4.92586 6.45992 4.907 6.38475C4.88814 6.30959 4.87119 6.23401 4.85602 6.15802C4.84099 6.08203 4.82773 6.00564 4.81639 5.92897C4.80504 5.85243 4.79548 5.77549 4.78796 5.69841C4.78031 5.62133 4.77457 5.54411 4.77074 5.46662C4.76705 5.38927 4.76514 5.31178 4.76514 5.23443C4.76514 5.15693 4.76705 5.07944 4.77074 5.00209C4.77457 4.92474 4.78031 4.84738 4.78796 4.7703C4.79548 4.69322 4.80504 4.61628 4.81639 4.53975C4.82773 4.46308 4.84099 4.38668 4.85602 4.31069C4.87119 4.2347 4.88814 4.15913 4.907 4.08396C4.92586 4.00879 4.94649 3.93417 4.96904 3.8601C4.99146 3.78589 5.01578 3.71236 5.04189 3.63938C5.06799 3.56654 5.09587 3.49424 5.12553 3.42263C5.15518 3.35101 5.18662 3.28022 5.21969 3.21025C5.25277 3.14014 5.28762 3.07098 5.32424 3.00265C5.36073 2.93432 5.39886 2.86694 5.43877 2.80038C5.47854 2.73396 5.51995 2.6685 5.563 2.60413C5.60605 2.53976 5.65074 2.47634 5.69693 2.41416C5.74299 2.35184 5.79069 2.29089 5.83989 2.23089C5.88895 2.17103 5.93965 2.1124 5.99159 2.055C6.04366 1.9976 6.0971 1.94143 6.1519 1.88676C6.2067 1.83196 6.26274 1.77852 6.32014 1.72645C6.37767 1.67438 6.4363 1.62381 6.49616 1.57475C6.55602 1.52555 6.61711 1.47785 6.67943 1.4318C6.74162 1.3856 6.80489 1.34091 6.8694 1.298C6.93377 1.25495 6.99924 1.2134 7.06566 1.17363C7.13221 1.13373 7.19959 1.0956 7.26792 1.05911C7.33626 1.02262 7.40541 0.987765 7.47552 0.954555C7.54549 0.921482 7.61642 0.890048 7.6879 0.860391C7.75952 0.830735 7.83181 0.802855 7.90479 0.776751C7.97777 0.750648 8.0513 0.726458 8.12551 0.703907C8.19958 0.681494 8.2742 0.660721 8.34937 0.641997C8.42454 0.623137 8.50011 0.60619 8.5761 0.59102C8.65223 0.57585 8.72849 0.56273 8.80516 0.55125C8.88183 0.539907 8.95863 0.530477 9.03585 0.522823C9.11293 0.515307 9.19015 0.509567 9.2675 0.50574C9.34499 0.501913 9.42234 0.5 9.49984 0.5C9.57733 0.5 9.65482 0.501913 9.73217 0.50574C9.80966 0.509567 9.88688 0.515307 9.96396 0.522823C10.041 0.530477 10.118 0.539907 10.1947 0.55125C10.2713 0.56273 10.3476 0.57585 10.4236 0.59102C10.4996 0.60619 10.5751 0.623137 10.6503 0.641997C10.7255 0.660721 10.8001 0.681494 10.8743 0.703907C10.9485 0.726458 11.022 0.750648 11.095 0.776751C11.168 0.802855 11.2402 0.830735 11.3118 0.860391C11.3834 0.890048 11.4542 0.921482 11.5243 0.954555C11.5943 0.987765 11.6635 1.02262 11.7319 1.05911C11.8002 1.0956 11.8676 1.13373 11.934 1.17363C12.0004 1.2134 12.0659 1.25495 12.1304 1.298C12.1948 1.34091 12.2582 1.3856 12.3204 1.4318C12.3826 1.47785 12.4436 1.52555 12.5036 1.57475C12.5635 1.62381 12.6221 1.67438 12.6795 1.72645C12.7369 1.77852 12.7931 1.83196 12.8479 1.88676C12.9027 1.94143 12.956 1.9976 13.0081 2.055C13.0602 2.1124 13.1107 2.17103 13.1599 2.23089C13.2091 2.29089 13.2567 2.35184 13.3029 2.41416C13.3491 2.47634 13.3936 2.53976 13.4367 2.60413C13.4797 2.6685 13.5211 2.73396 13.561 2.80038C13.6008 2.86694 13.6391 2.93432 13.6756 3.00265C13.7121 3.07098 13.7469 3.14014 13.7801 3.21025C13.8132 3.28022 13.8446 3.35101 13.8743 3.42263C13.9039 3.49424 13.9318 3.56654 13.9579 3.63938C13.984 3.71236 14.0082 3.78589 14.0308 3.8601C14.0533 3.93417 14.0739 4.00893 14.0928 4.08396C14.1115 4.15913 14.1286 4.2347 14.1436 4.31069C14.1588 4.38668 14.1721 4.46308 14.1834 4.53975C14.1948 4.61628 14.2042 4.69322 14.2118 4.7703C14.2195 4.84738 14.2251 4.92474 14.2289 5.00209C14.2328 5.07944 14.2347 5.15693 14.2347 5.23443Z" fill="white"/>
</svg>
