<svg width="21" height="14" viewBox="0 0 21 14" fill="none" xmlns="http://www.w3.org/2000/svg">
<path d="M6.67969 7C8.47461 7 9.92969 5.54493 9.92969 3.75C9.92969 1.95507 8.47461 0.5 6.67969 0.5C4.88476 0.5 3.42969 1.95507 3.42969 3.75C3.42969 5.54493 4.88476 7 6.67969 7Z" stroke="#A49A99" stroke-linecap="round" stroke-linejoin="round"/>
<path d="M12.86 13.4999C12.4402 12.1907 11.6155 11.0487 10.5048 10.2385C9.39409 9.42828 8.0548 8.9917 6.68 8.9917C5.3052 8.9917 3.96591 9.42828 2.85522 10.2385C1.74453 11.0487 0.919822 12.1907 0.5 13.4999H12.86Z" stroke="#A49A99" stroke-linecap="round" stroke-linejoin="round"/>
<g clip-path="url(#clip0_6076_10037)">
<path d="M16.7514 7.57164C17.1459 7.57164 17.4657 7.25184 17.4657 6.85735C17.4657 6.46286 17.1459 6.14307 16.7514 6.14307C16.3569 6.14307 16.0371 6.46286 16.0371 6.85735C16.0371 7.25184 16.3569 7.57164 16.7514 7.57164Z" stroke="#A49A99" stroke-width="0.714286" stroke-linecap="round" stroke-linejoin="round"/>
<path d="M13.8943 11.143C14.0915 11.143 14.2514 10.9831 14.2514 10.7859C14.2514 10.5886 14.0915 10.4287 13.8943 10.4287C13.697 10.4287 13.5371 10.5886 13.5371 10.7859C13.5371 10.9831 13.697 11.143 13.8943 11.143Z" stroke="#A49A99" stroke-width="0.714286" stroke-linecap="round" stroke-linejoin="round"/>
<path d="M13.894 8.64244C14.2885 8.64244 14.6083 8.32264 14.6083 7.92815C14.6083 7.53366 14.2885 7.21387 13.894 7.21387C13.4995 7.21387 13.1797 7.53366 13.1797 7.92815C13.1797 8.32264 13.4995 8.64244 13.894 8.64244Z" stroke="#A49A99" stroke-width="0.714286" stroke-linecap="round" stroke-linejoin="round"/>
<path d="M17.4788 12.7712C17.4708 12.6327 17.4227 12.4994 17.3402 12.3878C17.2578 12.2762 17.1446 12.191 17.0145 12.1426C16.6914 12.0365 16.4168 11.8185 16.2401 11.528C16.0633 11.2375 15.996 10.8934 16.0503 10.5577C16.1045 10.222 16.2767 9.91661 16.5359 9.6965C16.7952 9.4764 17.1244 9.356 17.4645 9.35694H18.8002C19.0293 9.35757 19.2552 9.3031 19.4588 9.19812C19.6624 9.09314 19.8378 8.94073 19.9702 8.75374C20.1025 8.56676 20.188 8.35068 20.2193 8.12374C20.2507 7.8968 20.227 7.66565 20.1502 7.44979C19.8661 6.64763 19.367 5.93897 18.7074 5.40125C18.0479 4.86353 17.2532 4.51744 16.4102 4.40077C15.5673 4.28411 14.7085 4.40137 13.9276 4.73973C13.1468 5.0781 12.474 5.62456 11.9827 6.31942C11.4914 7.01427 11.2006 7.83078 11.1419 8.67975C11.0832 9.52871 11.259 10.3775 11.6501 11.1333C12.0411 11.8891 12.6324 12.5229 13.3593 12.9655C14.0861 13.408 14.9206 13.6423 15.7716 13.6426C16.1919 13.6438 16.6102 13.5861 17.0145 13.4712C17.163 13.4296 17.2915 13.336 17.3768 13.2075C17.462 13.079 17.4982 12.9242 17.4788 12.7712V12.7712Z" stroke="#A49A99" stroke-width="0.714286" stroke-linecap="round" stroke-linejoin="round"/>
</g>
<defs>
<clipPath id="clip0_6076_10037">
<rect width="10" height="10" fill="white" transform="translate(10.6797 4)"/>
</clipPath>
</defs>
</svg>
