<svg width="24" height="24" viewBox="0 0 24 24" fill="none" xmlns="http://www.w3.org/2000/svg">
<path fill-rule="evenodd" clip-rule="evenodd" d="M3.05196 7.14683L3.28637 12.3039C3.36471 14.0272 3.40387 14.8889 3.66225 15.6722C3.89112 16.366 4.24479 17.0121 4.70583 17.5789C5.22632 18.2187 5.93098 18.7161 7.3403 19.7109L7.34031 19.7109L11.0771 22.3487C11.4094 22.5832 11.5755 22.7005 11.7564 22.7459C11.9162 22.786 12.0834 22.786 12.2432 22.7459C12.4241 22.7005 12.5903 22.5832 12.9225 22.3487L16.6593 19.7109C18.0687 18.7161 18.7733 18.2187 19.2938 17.5789C19.7549 17.0121 20.1085 16.366 20.3374 15.6722C20.5958 14.8889 20.635 14.0272 20.7133 12.3039L20.9477 7.14683V7.14681C20.9655 6.75584 20.9744 6.56035 20.9194 6.30635C20.8805 6.12651 20.7591 5.82701 20.6617 5.67088C20.5242 5.45037 20.4224 5.35464 20.2189 5.16318C18.9721 3.99048 16.2324 2 11.9998 2C7.76721 2 5.02758 3.99048 3.78079 5.16318C3.57724 5.35464 3.47547 5.45037 3.33796 5.67088C3.2406 5.82701 3.11914 6.12651 3.08024 6.30635C3.0253 6.56035 3.03419 6.75585 3.05196 7.14683ZM16.6363 10.1364C16.9878 9.78492 16.9878 9.21508 16.6363 8.8636C16.2848 8.51213 15.715 8.51213 15.3635 8.8636L10.9999 13.2272L8.6363 10.8636C8.28482 10.5121 7.71498 10.5121 7.3635 10.8636C7.01203 11.2151 7.01203 11.7849 7.3635 12.1364L10.3635 15.1364C10.715 15.4879 11.2848 15.4879 11.6363 15.1364L16.6363 10.1364Z" fill="url(#paint0_linear_4813_2456)"/>
<defs>
<linearGradient id="paint0_linear_4813_2456" x1="20.9613" y1="1.99999" x2="1.17835" y2="3.95505" gradientUnits="userSpaceOnUse">
<stop stop-color="#D03660"/>
<stop offset="1" stop-color="#D73B54"/>
</linearGradient>
</defs>
</svg>
