<svg width="36" height="36" viewBox="0 0 36 36" fill="none" xmlns="http://www.w3.org/2000/svg">
<rect width="36" height="36" rx="18" fill="#FF4C4C" fill-opacity="0.3"/>
<circle cx="18" cy="18" r="13" fill="#FF4C4C"/>
<g clip-path="url(#clip0_5388_8154)">
<path d="M18.0001 16.2891V18.8605" stroke="white" stroke-width="0.932143" stroke-linecap="round" stroke-linejoin="round"/>
<path d="M18.0001 21.8571C18.2368 21.8571 18.4287 21.6653 18.4287 21.4286C18.4287 21.1919 18.2368 21 18.0001 21C17.7634 21 17.5715 21.1919 17.5715 21.4286C17.5715 21.6653 17.7634 21.8571 18.0001 21.8571Z" stroke="white" stroke-width="0.932143" stroke-linecap="round" stroke-linejoin="round"/>
<path d="M18.7628 12.8999C18.6909 12.7595 18.5816 12.6417 18.447 12.5594C18.3124 12.4771 18.1577 12.4336 18 12.4336C17.8422 12.4336 17.6875 12.4771 17.5529 12.5594C17.4183 12.6417 17.3091 12.7595 17.2371 12.8999L12.5228 22.3285C12.4571 22.459 12.4258 22.6041 12.4319 22.7501C12.438 22.8961 12.4814 23.0381 12.5578 23.1626C12.6342 23.2871 12.7412 23.39 12.8686 23.4616C12.996 23.5331 13.1396 23.5709 13.2857 23.5713H22.7143C22.8604 23.5709 23.004 23.5331 23.1314 23.4616C23.2588 23.39 23.3658 23.2871 23.4422 23.1626C23.5186 23.0381 23.562 22.8961 23.5681 22.7501C23.5742 22.6041 23.5429 22.459 23.4771 22.3285L18.7628 12.8999Z" stroke="white" stroke-width="0.932143" stroke-linecap="round" stroke-linejoin="round"/>
</g>
<defs>
<clipPath id="clip0_5388_8154">
<rect width="12" height="12" fill="white" transform="translate(12 12)"/>
</clipPath>
</defs>
</svg>
