<svg width="26" height="26" viewBox="0 0 26 26" fill="none" xmlns="http://www.w3.org/2000/svg">
<circle cx="13" cy="13" r="13" fill="#F49E00"/>
<g clip-path="url(#clip0_5794_3934)">
<path d="M13.0001 11.2891V13.8605" stroke="white" stroke-width="0.932143" stroke-linecap="round" stroke-linejoin="round"/>
<path d="M13.0001 16.8571C13.2368 16.8571 13.4287 16.6653 13.4287 16.4286C13.4287 16.1919 13.2368 16 13.0001 16C12.7634 16 12.5715 16.1919 12.5715 16.4286C12.5715 16.6653 12.7634 16.8571 13.0001 16.8571Z" stroke="white" stroke-width="0.932143" stroke-linecap="round" stroke-linejoin="round"/>
<path d="M13.7628 7.89991C13.6909 7.75951 13.5816 7.64168 13.447 7.55941C13.3124 7.47713 13.1577 7.43359 13 7.43359C12.8422 7.43359 12.6875 7.47713 12.5529 7.55941C12.4183 7.64168 12.3091 7.75951 12.2371 7.89991L7.52284 17.3285C7.45709 17.459 7.42579 17.6041 7.4319 17.7501C7.43802 17.8961 7.48135 18.0381 7.55778 18.1626C7.63422 18.2871 7.74122 18.39 7.86862 18.4616C7.99602 18.5331 8.13959 18.5709 8.2857 18.5713H17.7143C17.8604 18.5709 18.004 18.5331 18.1314 18.4616C18.2588 18.39 18.3658 18.2871 18.4422 18.1626C18.5186 18.0381 18.562 17.8961 18.5681 17.7501C18.5742 17.6041 18.5429 17.459 18.4771 17.3285L13.7628 7.89991Z" stroke="white" stroke-width="0.932143" stroke-linecap="round" stroke-linejoin="round"/>
</g>
<defs>
<clipPath id="clip0_5794_3934">
<rect width="12" height="12" fill="white" transform="translate(7 7)"/>
</clipPath>
</defs>
</svg>
