<svg width="19" height="20" viewBox="0 0 19 20" fill="none" xmlns="http://www.w3.org/2000/svg">
<g clip-path="url(#clip0_5175_4424)">
<g clip-path="url(#clip1_5175_4424)">
<path d="M7.23297 3.51953L6.69885 5.3374L6.40753 4.41272H5.69232L5.40118 5.3374L4.86707 3.51953L4.14746 3.7312L5.02893 6.7312L5.74634 6.73816L6.04993 5.77393L6.3537 6.73816L7.07111 6.7312L7.95258 3.7312L7.23297 3.51953Z" fill="white"/>
<path d="M11.4331 3.51953L10.8988 5.3374L10.6077 4.41272H9.89246L9.60132 5.3374L9.06702 3.51953L8.34741 3.7312L9.22906 6.7312L9.94647 6.73816L10.2501 5.77393L10.5536 6.73816L11.2711 6.7312L12.1527 3.7312L11.4331 3.51953Z" fill="white"/>
<path d="M15.6329 3.51953L15.0988 5.3374L14.8076 4.41272H14.0924L13.8011 5.3374L13.267 3.51953L12.5474 3.7312L13.4288 6.7312L14.1462 6.73816L14.45 5.77393L14.7536 6.73816L15.471 6.7312L16.3525 3.7312L15.6329 3.51953Z" fill="white"/>
<path d="M18.5 2.125H2V5.38743C1.02064 6.73406 0.5 8.32488 0.5 10C0.5 12.0775 1.30182 14.0356 2.75696 15.5122C4.24744 17.036 6.24274 17.875 8.375 17.875C10.5073 17.875 12.5026 17.036 13.9921 15.5133C15.4482 14.0356 16.25 12.0775 16.25 10C16.25 9.36429 16.1714 8.73617 16.0218 8.125H18.5V2.125ZM2 6.82389V8.125H4.12479C4.05939 8.61532 4.02064 9.11703 4.0076 9.625H1.26487C1.31559 8.63967 1.56436 7.69247 2 6.82389ZM1.26809 10.375H4.01024C4.03998 11.5618 4.20642 12.6724 4.48712 13.6561C3.97369 13.9496 3.49363 14.3058 3.05022 14.7161C1.97426 13.5084 1.35203 11.9924 1.26809 10.375ZM3.57632 15.2499C3.93297 14.9221 4.31647 14.635 4.7234 14.3901C5.07657 15.3519 5.54672 16.1531 6.0975 16.7477C5.16908 16.4348 4.31453 15.9283 3.57632 15.2499ZM8 17.0842C6.93997 16.8584 6.00082 15.6892 5.40785 14.0271C6.21549 13.6556 7.09048 13.4404 8 13.3935V17.0842ZM8 12.6435C7.0128 12.6896 6.06091 12.9126 5.18029 13.3047C4.93646 12.4163 4.78939 11.421 4.76006 10.375H8V12.6435ZM8 9.625H4.7576C4.77137 9.11586 4.81334 8.61415 4.88256 8.125H8V9.625ZM8.75 17.0842V13.3935C9.65952 13.4404 10.5345 13.6555 11.3421 14.027C10.7492 15.6892 9.81003 16.8584 8.75 17.0842ZM11.9899 10.375C11.9606 11.421 11.8135 12.4163 11.5697 13.3047C10.6891 12.9126 9.73723 12.6896 8.75 12.6435V10.375H11.9899ZM8.75 9.625V8.125H11.8675C11.9367 8.61411 11.9787 9.11575 11.9924 9.625H8.75ZM10.6524 16.7478C11.2032 16.1531 11.6734 15.3519 12.0266 14.3901C12.4336 14.635 12.8171 14.9222 13.1738 15.25C12.4358 15.9283 11.5811 16.4348 10.6524 16.7478ZM13.6998 14.7162C13.2564 14.3058 12.7763 13.9497 12.2629 13.6561C12.5436 12.6724 12.71 11.5617 12.7398 10.375H15.4819C15.398 11.992 14.7759 13.5078 13.6998 14.7162ZM12.7424 9.625C12.7294 9.11692 12.6906 8.61525 12.6252 8.125H15.245C15.3783 8.61385 15.4593 9.11571 15.4859 9.625H12.7424ZM17.75 7.375H2.75V2.875H17.75V7.375Z" fill="white"/>
</g>
</g>
<defs>
<clipPath id="clip0_5175_4424">
<rect width="18" height="20" fill="white" transform="translate(0.5)"/>
</clipPath>
<clipPath id="clip1_5175_4424">
<rect width="18" height="18" fill="white" transform="translate(0.5 1)"/>
</clipPath>
</defs>
</svg>
