<svg width="14" height="14" viewBox="0 0 14 14" fill="none" xmlns="http://www.w3.org/2000/svg">
<g clip-path="url(#clip0_5072_2121)">
<path d="M1.5 13.5C1.23478 13.5 0.98043 13.3946 0.792893 13.2071C0.605357 13.0196 0.5 12.7652 0.5 12.5V1.5C0.5 1.23478 0.605357 0.98043 0.792893 0.792893C0.98043 0.605357 1.23478 0.5 1.5 0.5H12.5C12.7652 0.5 13.0196 0.605357 13.2071 0.792893C13.3946 0.98043 13.5 1.23478 13.5 1.5V12.5C13.5 12.7652 13.3946 13.0196 13.2071 13.2071C13.0196 13.3946 12.7652 13.5 12.5 13.5" stroke="white" stroke-linecap="round" stroke-linejoin="round"/>
<path d="M0.5 3.5H13.5" stroke="white" stroke-linecap="round" stroke-linejoin="round"/>
<path d="M6.44976 7.3706C6.49281 7.25972 6.56836 7.16445 6.66651 7.09727C6.76466 7.03009 6.88082 6.99414 6.99976 6.99414C7.1187 6.99414 7.23486 7.03009 7.33301 7.09727C7.43116 7.16445 7.50671 7.25972 7.54976 7.3706L8.18976 9.0006H9.89976C10.0116 9.00913 10.1188 9.04883 10.2092 9.11519C10.2996 9.18154 10.3695 9.27191 10.4112 9.37603C10.4528 9.48014 10.4645 9.59385 10.4448 9.70425C10.4251 9.81464 10.3748 9.91731 10.2998 10.0006L8.78976 11.3606L9.42976 12.6406C9.48769 12.753 9.50732 12.8812 9.48566 13.0058C9.464 13.1303 9.40223 13.2444 9.30976 13.3306C9.21792 13.4179 9.10117 13.4745 8.97573 13.4924C8.85028 13.5103 8.72237 13.4887 8.60976 13.4306L6.99976 12.5506L5.38976 13.4306C5.27715 13.4887 5.14923 13.5103 5.02379 13.4924C4.89835 13.4745 4.7816 13.4179 4.68976 13.3306C4.59729 13.2444 4.53552 13.1303 4.51386 13.0058C4.49219 12.8812 4.51182 12.753 4.56976 12.6406L5.20976 11.3606L3.69976 10.0006C3.62467 9.91731 3.57443 9.81464 3.55474 9.70425C3.53504 9.59385 3.54668 9.48014 3.58832 9.37603C3.62997 9.27191 3.69996 9.18154 3.79036 9.11519C3.88076 9.04883 3.98794 9.00913 4.09976 9.0006H5.80976L6.44976 7.3706Z" stroke="white" stroke-linecap="round" stroke-linejoin="round"/>
</g>
<defs>
<clipPath id="clip0_5072_2121">
<rect width="14" height="14" fill="white"/>
</clipPath>
</defs>
</svg>
