<svg width="26" height="27" viewBox="0 0 26 27" fill="none" xmlns="http://www.w3.org/2000/svg">
<path d="M16.7011 0.837784H2.15983C1.42974 0.837784 0.837891 1.50626 0.837891 2.33086V18.7548C0.837891 19.5794 1.42974 20.2478 2.15983 20.2478H16.7011C17.4312 20.2478 18.0231 19.5794 18.0231 18.7548V2.33086C18.0231 1.50626 17.4312 0.837784 16.7011 0.837784Z" stroke="white" stroke-width="1.67556" stroke-linecap="round" stroke-linejoin="round"/>
<path d="M19.9233 3.4846H5.382C4.65191 3.4846 4.06006 4.15308 4.06006 4.97768V21.4016C4.06006 22.2262 4.65191 22.8947 5.382 22.8947H19.9233C20.6534 22.8947 21.2452 22.2262 21.2452 21.4016V4.97768C21.2452 4.15308 20.6534 3.4846 19.9233 3.4846Z" stroke="white" stroke-width="1.67556" stroke-linecap="round" stroke-linejoin="round"/>
<path d="M23.1455 6.20816H8.60416C7.87408 6.20816 7.28223 6.87399 7.28223 7.69534V24.0543C7.28223 24.8757 7.87408 25.5415 8.60416 25.5415H23.1455C23.8756 25.5415 24.4674 24.8757 24.4674 24.0543V7.69534C24.4674 6.87399 23.8756 6.20816 23.1455 6.20816Z" stroke="white" stroke-width="1.67556" stroke-linecap="round" stroke-linejoin="round"/>
</svg>
